<svg width="56" height="56" viewBox="0 0 56 56" fill="none" xmlns="http://www.w3.org/2000/svg">
<path d="M51.1 0C50.6333 0 50.1667 0.350001 50.05 0.700001C46.55 9.91669 46.3167 10.6167 46.3167 10.9667V51.3334C46.3167 53.9001 48.4167 56.0001 50.9833 56.0001H51.3333C53.9 56.0001 56 53.9001 56 51.3334V10.9667C56 10.5 55.0667 8.28335 52.2667 0.700001C52.0333 0.350001 51.5667 0 51.1 0ZM53.6667 51.3334C53.6667 52.6168 52.6167 53.6668 51.3333 53.6668H50.8667C49.5833 53.6668 48.5333 52.6168 48.5333 51.3334V48.6501H53.6667V51.3334ZM53.6667 46.3168H48.65V12.1334H53.6667V46.3168ZM49.1167 9.80002L51.1 4.43334L53.0833 9.80002H49.1167Z" fill="#004192"/>
<path d="M38.0334 0H3.50001C1.51667 0 0 1.51667 0 3.50001V52.5001C0 54.4834 1.51667 56.0001 3.50001 56.0001H38.0334C40.0167 56.0001 41.5334 54.4834 41.5334 52.5001V3.50001C41.5334 1.51667 39.9001 0 38.0334 0ZM39.2001 52.5001C39.2001 53.2001 38.7334 53.6668 38.0334 53.6668H3.50001C2.80001 53.6668 2.33334 53.2001 2.33334 52.5001V3.50001C2.33334 2.80001 2.80001 2.33334 3.50001 2.33334H38.0334C38.7334 2.33334 39.2001 2.80001 39.2001 3.50001V52.5001Z" fill="#004192"/>
<path d="M34.65 5.4834H6.88333C6.18333 5.4834 5.71666 5.95007 5.71666 6.65007V19.8334C5.71666 20.5334 6.18333 21.0001 6.88333 21.0001H34.65C35.35 21.0001 35.8167 20.5334 35.8167 19.8334V6.65007C35.8167 5.95007 35.35 5.4834 34.65 5.4834ZM33.4834 18.6668H8.05V7.81674H33.4834V18.6668Z" fill="#004192"/>
<path d="M34.65 23.9167C24.5 23.9167 16.3333 23.9167 6.88333 23.9167C6.18333 23.9167 5.71666 24.3834 5.71666 25.0834C5.71666 33.4834 5.71666 40.6001 5.71666 49.4668C5.71666 50.1668 6.18333 50.6335 6.88333 50.6335C17.0333 50.6335 25.2 50.6335 34.65 50.6335C35.35 50.6335 35.8167 50.1668 35.8167 49.4668C35.8167 45.7335 35.8167 31.5001 35.8167 25.0834C35.8167 24.5001 35.35 23.9167 34.65 23.9167ZM14.9333 48.4168H8.05V42.5835H14.9333V48.4168ZM14.9333 40.2501H8.05V34.4168H14.9333V40.2501ZM14.9333 32.0834H8.05V26.2501H14.9333V32.0834ZM24.2667 48.4168H17.3833V42.5835H24.2667V48.4168ZM24.2667 40.2501H17.3833V34.4168H24.2667V40.2501ZM24.2667 32.0834H17.3833V26.2501H24.2667V32.0834ZM33.4834 48.4168H26.6V41.4168V34.4168H33.4834V48.4168ZM33.4834 32.0834H26.6V26.2501H33.4834V32.0834Z" fill="#004192"/>
</svg>
