<svg width="80" height="80" viewBox="0 0 80 80" fill="none" xmlns="http://www.w3.org/2000/svg">
<path fill-rule="evenodd" clip-rule="evenodd" d="M70.5 4H9.5V9H70.5V4ZM5.5 4V9L0 18.5V24V27.5833C0 29.6746 0.753235 31.5876 2 33.0596V80H9H13H27H31H78V33.0596C79.2467 31.5876 79.9999 29.6746 79.9999 27.5833L80 24V18.5L74.5 9V4C74.5 1.79077 72.7091 0 70.5 0H9.5C7.29083 0 5.5 1.79077 5.5 4ZM27 76H13V45H27V76ZM31 45V76H74V35.6699C73.2658 35.8848 72.4898 36 71.6872 36C69.1479 36 66.8746 34.8472 65.3498 33.0303C63.825 34.8472 61.5516 36 59.0123 36C56.4731 36 54.1997 34.8472 52.6749 33.0303C51.1501 34.8472 48.8768 36 46.3375 36C43.7982 36 41.5248 34.8472 40 33.0303C38.4752 34.8472 36.2018 36 33.6625 36C31.1233 36 28.8499 34.8472 27.3251 33.0303C25.8004 34.8472 23.527 36 20.9877 36C18.4484 36 16.175 34.8472 14.6502 33.0303C13.1254 34.8472 10.8521 36 8.31274 36C7.51019 36 6.73419 35.8848 6 35.6699V76H9V45V41H13H27H31V45ZM3.95062 27.5833V24H4V23H76V24H76.0493V27.5833C76.0493 30.0227 74.0964 32 71.6872 32C69.2825 32 67.3323 30.0298 67.3251 27.5969V27.5833V26H63.3745V27.5833V27.5969C63.3672 30.0298 61.4171 32 59.0123 32C56.6074 32 54.6569 30.0293 54.6502 27.5959V27.5833V26H50.6996V27.5833V27.5969C50.6924 30.0298 48.7422 32 46.3375 32C43.9283 32 41.9753 30.0227 41.9753 27.5833V26H38.0247V27.5833C38.0247 30.0227 36.0717 32 33.6625 32C31.2579 32 29.3076 30.0298 29.3004 27.5969V27.5833V26H25.3498V27.5833V27.5969C25.3426 30.0298 23.3924 32 20.9877 32C18.5786 32 16.6255 30.0227 16.6255 27.5833V26H12.6749V27.5833C12.6749 30.0227 10.7219 32 8.31274 32C5.90363 32 3.95062 30.0227 3.95062 27.5833ZM75.6674 19H4.33258L7.80621 13H9.5H70.5H72.1938L75.6674 19ZM55.6047 45H67V69H54V66H60C61.1046 66 62 65.1045 62 64C62 62.8955 61.1046 62 60 62H44C42.8954 62 42 62.8955 42 64C42 65.1045 42.8954 66 44 66H50V69H38V45H47.3953C45.0864 46.1912 43.2944 48.3562 42.4799 51C42.2418 51.7727 42.0873 52.5864 42.0277 53.4285C42.0093 53.688 42 53.95 42 54.2144C42 54.4788 42.0093 54.7407 42.0277 55H49.05C49.0172 55.1616 49 55.3289 49 55.5C49 56.8806 50.1193 58 51.5 58C52.8807 58 54 56.8806 54 55.5C54 55.3289 53.9828 55.1616 53.95 55H60.9723C60.9907 54.7407 61 54.4788 61 54.2144C61 54.1482 60.9995 54.0823 60.9983 54.0166C60.9948 53.8191 60.9861 53.623 60.9723 53.4285C60.9127 52.5864 60.7582 51.7727 60.5201 51C59.7056 48.3562 57.9136 46.1912 55.6047 45ZM34 41H38H67H71V45V69V73H67H38H34V69V45V41ZM46.7855 51C47.7945 49.1313 49.6385 48 51.5 48C53.3615 48 55.2055 49.1313 56.2145 51H46.7855Z" fill="#004192"/>
</svg>
