<svg width="80" height="80" viewBox="0 0 80 80" fill="none" xmlns="http://www.w3.org/2000/svg">
<path fill-rule="evenodd" clip-rule="evenodd" d="M46 2C46 0.895431 45.1046 0 44 0C42.8954 0 42 0.89543 42 2V8H41C37.6863 8 35 10.6863 35 14V17H30C26.6863 17 24 19.6863 24 23V76H12V70.8C16.5645 69.8734 20 65.8379 20 61C20 55.4771 15.5228 43 10 43C4.47715 43 0 55.4771 0 61C0 65.8379 3.43552 69.8734 8 70.8V76H2C0.895431 76 0 76.8954 0 78C0 79.1046 0.89543 80 2 80H24H28H60H64H76H80V76V70V66V61V57V45C80 41.6863 77.3137 39 74 39H64V23C64 19.6863 61.3137 17 58 17H53V14C53 10.6863 50.3137 8 47 8H46V2ZM76 52V57H64V52H76ZM76 48V45C76 43.8954 75.1046 43 74 43H64V48H76ZM76 61H64V66H76V61ZM64 70V76H76V70H64ZM60 76H28V23C28 21.8954 28.8954 21 30 21H35H39H49H53H58C59.1046 21 60 21.8954 60 23V39V43V76ZM47 12H41C39.8954 12 39 12.8954 39 14V17H49V14C49 12.8954 48.1046 12 47 12ZM55 61V57H51V61H55ZM42 66H46V70H42V66ZM46 57H42V61H46V57ZM42 48H46V52H42V48ZM55 66V70H51V66H55ZM33 57H37V61H33V57ZM10 67C13.3137 67 16 64.3137 16 61C16 58.9977 15.0949 55.0913 13.458 51.6452C12.6557 49.9563 11.7947 48.6331 10.9961 47.7947C10.452 47.2235 10.1185 47.0586 10 47.0135C9.88152 47.0586 9.548 47.2235 9.00391 47.7947C8.20532 48.6331 7.34427 49.9563 6.54202 51.6452C4.90507 55.0913 4 58.9977 4 61C4 64.3137 6.68629 67 10 67ZM37 66H33V70H37V66ZM55 34V30H51V34H55ZM51 43V39H55V43H51ZM51 52V48H55V52H51ZM42 39H46V43H42V39ZM46 30H42V34H46V30ZM33 48H37V52H33V48ZM37 39H33V43H37V39ZM33 30H37V34H33V30Z" fill="#004192"/>
</svg>
