<svg width="108" height="97" viewBox="0 0 108 97" fill="none" xmlns="http://www.w3.org/2000/svg">
<path d="M56.7492 22.4814C56.81 22.2485 56.8456 22.0056 56.8456 21.7538C56.8456 21.5021 56.81 21.2591 56.7492 21.0263V3.61445C56.81 3.38161 56.8456 3.13866 56.8456 2.8869C56.8456 1.29262 55.5498 0 53.9517 0H33.4169C29.9137 0 27.0636 2.84321 27.0636 6.33822V7.54711H10.157C8.55885 7.54711 7.26308 8.83974 7.26308 10.434C7.26308 11.1447 7.52167 11.7943 7.94855 12.2973C7.9802 12.3402 8.00959 12.384 8.04393 12.4255L14.2503 19.9456L8.04365 27.4662C7.02795 28.6971 7.20458 30.5163 8.43874 31.5298C8.97739 31.9722 9.62881 32.1879 10.2763 32.1879C10.2944 32.1879 10.3122 32.1853 10.3302 32.185C10.3495 32.1853 10.3683 32.1879 10.3876 32.1879H37.038C41.0745 32.1879 44.3768 28.9934 44.5385 25.0058C44.5427 24.9427 44.5447 24.8793 44.5447 24.8153V24.6994H38.7569C38.7569 25.6289 37.9698 26.4141 37.038 26.4141H16.4089L21.7474 19.9456L16.28 13.3209H27.0636V18.3025C27.0636 21.7975 29.9137 24.6407 33.4169 24.6407H50.9614V39.1388L0 97H108L56.7492 38.8103V22.4814ZM54 44.4363L73.8729 66.9999L54.9513 60.0989L42.1705 75.5613L34.2371 66.875L54 44.4363ZM33.4169 18.8669C33.1103 18.8669 32.8514 18.6084 32.8514 18.3025V6.33822C32.8514 6.03233 33.1103 5.77381 33.4169 5.77381H50.9614V18.8669H33.4169ZM12.7898 91.2262L30.3932 71.2394L42.3887 84.3732L56.8108 66.9249L81.8009 76.0387C81.8159 76.0441 81.831 76.0474 81.846 76.0526L95.2102 91.2262H12.7898Z" fill="#E1E4EA"/>
</svg>
