<svg width="16" height="16" viewBox="0 0 16 16" fill="none" xmlns="http://www.w3.org/2000/svg">
<path fill-rule="evenodd" clip-rule="evenodd" d="M13.1464 2.14648L15.1464 0.146484L15.8536 0.853591L13.8536 2.85359L13.1464 2.14648ZM7 2.00004C10.866 2.00004 14 5.13407 14 9.00004C14 9.00004 13.0371 8.00004 12.25 8.00004C11.8564 8.00004 11.6157 8.25004 11.375 8.50004C11.1343 8.75004 10.8936 9.00004 10.5 9.00004C10.1064 9.00004 9.86572 8.75004 9.625 8.50004C9.38428 8.25004 9.14356 8.00004 8.75 8.00004C8.35644 8.00004 8.11572 8.25004 7.875 8.50004C7.75613 8.62349 7.63727 8.74694 7.5 8.84028V13.5C7.5 14.3284 8.17157 15 9 15C9.82843 15 10.5 14.3284 10.5 13.5V13H11.5V13.5C11.5 14.8807 10.3807 16 9 16C7.61926 16 6.5 14.8807 6.5 13.5V8.84028C6.36273 8.74694 6.24387 8.62349 6.125 8.50004C5.88428 8.25004 5.64356 8.00004 5.25 8.00004C4.85644 8.00004 4.61572 8.25004 4.375 8.50004C4.13428 8.75004 3.89356 9.00004 3.5 9.00004C3.10644 9.00004 2.86572 8.75004 2.625 8.50004C2.38428 8.25004 2.14356 8.00004 1.75 8.00004C0.962873 8.00004 0 9.00004 0 9.00004C0 5.13407 3.13403 2.00004 7 2.00004ZM12.6464 0.146484L11.1464 1.64648L11.8536 2.35359L13.3536 0.853591L12.6464 0.146484ZM15.1464 2.64648L13.6464 4.14648L14.3536 4.85359L15.8536 3.35359L15.1464 2.64648Z" fill="#9CB4D3"/>
</svg>
