<svg width="20" height="20" viewBox="0 0 20 20" fill="none" xmlns="http://www.w3.org/2000/svg">
<path fill-rule="evenodd" clip-rule="evenodd" d="M3.35526 10.1027C0.508235 12.9433 0.225412 16.0523 2.59887 18.4192C4.96981 20.7818 7.98684 20.4851 10.8779 17.6033L18.1544 10.307L17.1259 9.289L9.85121 16.5835C8.27434 18.1553 5.92508 19.5612 3.68857 17.3326C1.28164 14.9324 3.08916 12.4121 4.37944 11.1246L13.1982 2.36217C13.4928 2.06814 14.0704 1.67664 14.7285 1.5403C15.4759 1.38579 16.1506 1.60239 16.7348 2.18471L16.7352 2.18505L16.7367 2.18658C17.352 2.79988 17.5988 3.46202 17.4701 4.15427C17.3326 4.89574 16.827 5.46405 16.6171 5.67336L7.74865 14.4874C7.53975 14.6959 7.10504 15.1299 6.70112 15.1423C6.48647 15.1489 6.25543 15.0305 6.0139 14.7897L6.00758 14.7834C5.84035 14.6167 5.47092 14.2296 6.48437 13.2181L15.297 4.42528L14.2714 3.4044L5.45892 12.1974C4.13702 13.5171 3.93619 14.8914 4.92146 15.8735C4.92266 15.8744 4.92386 15.8755 4.92504 15.8771C5.4474 16.3978 6.02972 16.6523 6.65534 16.6331C7.67866 16.6018 8.44587 15.8363 8.77279 15.51L8.77335 15.5095L17.6412 6.69603C17.9593 6.37934 18.7226 5.51533 18.9413 4.3377C19.0934 3.51891 19.0233 2.29274 17.8273 1.10054L17.8247 1.09798C16.6558 -0.0671492 15.3782 -0.0982166 14.5121 0.0809954C13.2527 0.341572 12.4033 1.11135 12.1742 1.34002L3.35526 10.1027Z" fill="#6D6F81"/>
</svg>
