<svg width="56" height="50" viewBox="0 0 56 50" fill="none" xmlns="http://www.w3.org/2000/svg">
<path fill-rule="evenodd" clip-rule="evenodd" d="M44 0H46V2H52C53.1046 2 54 2.89551 54 4V11C54 12.1045 53.1046 13 52 13H46V25H47C48.1046 25 49 25.8955 49 27V30C49 31.1045 48.1046 32 47 32H46V45H50C51.1046 45 52 45.8955 52 47V48H55C55.5523 48 56 48.4478 56 49C56 49.5522 55.5523 50 55 50H52H50H40H38H35H33H27H25H12H10H4H2H1C0.447723 50 0 49.5522 0 49C0 48.4478 0.447723 48 1 48H2V34C2 31.7908 3.79086 30 6 30V23C6 20.2385 8.23859 18 11 18H26C28.7614 18 31 20.2385 31 23V30C33.2091 30 35 31.7908 35 34V48H38V47C38 45.8955 38.8954 45 40 45H44V32H43C41.8954 32 41 31.1045 41 30V27C41 25.8955 41.8954 25 43 25H44V13H38C36.8954 13 36 12.1045 36 11V4C36 2.89551 36.8954 2 38 2H44V0ZM40 48H50V47H40V48ZM33 48V34C33 32.8955 32.1046 32 31 32H29C27.8954 32 27 32.8955 27 34V48H33ZM25 48V46H12V48H25ZM10 48V34C10 32.8955 9.10458 32 8 32H6C4.89542 32 4 32.8955 4 34V48H10ZM38 4H44H46H52V11H46H44H38V4ZM46 30H47V27H43V30H44H46ZM29 30C26.7909 30 25 31.7908 25 34V37.832C23.7751 37.2969 22.4222 37 21 37H16C14.5778 37 13.2249 37.2969 12 37.832V34C12 31.7908 10.2091 30 8 30V23C8 21.3433 9.34314 20 11 20H26C27.6569 20 29 21.3433 29 23V30ZM25 44V40.0703C23.8233 39.3896 22.4572 39 21 39H16C14.5428 39 13.1767 39.3896 12 40.0703V44H25Z" fill="#004192"/>
</svg>
