<svg width="16" height="16" viewBox="0 0 16 16" fill="none" xmlns="http://www.w3.org/2000/svg">
<path fill-rule="evenodd" clip-rule="evenodd" d="M10.8195 12.6422C12.5323 11.0518 14 9.05593 14 7C14 3.68629 11.3137 1 8 1C4.68629 1 2 3.68629 2 7C2 9.05593 3.46771 11.0518 5.18045 12.6422C6.01081 13.4133 6.8455 14.0397 7.47444 14.474C7.67348 14.6114 7.85096 14.7289 8 14.8251C8.14904 14.7289 8.32652 14.6114 8.52556 14.474C9.1545 14.0397 9.98919 13.4133 10.8195 12.6422ZM8 16C8 16 15 12 15 7C15 3.13401 11.866 0 8 0C4.13401 0 1 3.13401 1 7C1 12 8 16 8 16Z" fill="#6D6F81"/>
</svg>
