<svg width="26" height="32" viewBox="0 0 26 32" fill="none" xmlns="http://www.w3.org/2000/svg">
<path fill-rule="evenodd" clip-rule="evenodd" d="M1 31H25V7.5H18V1H1V31ZM19.0858 1L24.5858 6.5H19V1H19.0858ZM19.5 0H19H18H1H0V1V31V32H1H25H26V31V6.5L19.5 0ZM4.83984 13.8906V21H7.11523C7.41797 20.9967 7.71094 20.9495 7.99414 20.8584C8.2806 20.7673 8.53288 20.637 8.75098 20.4678C8.96908 20.2952 9.14323 20.082 9.27344 19.8281C9.40365 19.5742 9.46712 19.2812 9.46387 18.9492C9.46387 18.7376 9.43132 18.5407 9.36621 18.3584C9.30436 18.1761 9.21647 18.0133 9.10254 17.8701C8.98861 17.7236 8.85189 17.5999 8.69238 17.499C8.53613 17.3949 8.36361 17.3151 8.1748 17.2598C8.32454 17.1947 8.46615 17.1165 8.59961 17.0254C8.73307 16.9342 8.84863 16.8285 8.94629 16.708C9.0472 16.5843 9.12533 16.446 9.18066 16.293C9.23926 16.14 9.27018 15.9707 9.27344 15.7852C9.27669 15.4531 9.21322 15.1683 9.08301 14.9307C8.9528 14.693 8.77865 14.4977 8.56055 14.3447C8.34245 14.1917 8.09342 14.0794 7.81348 14.0078C7.53353 13.9329 7.24707 13.8939 6.9541 13.8906H4.83984ZM5.74805 20.2334V17.6748H7.18848C7.38053 17.6813 7.55957 17.7139 7.72559 17.7725C7.8916 17.8311 8.03646 17.9157 8.16016 18.0264C8.28385 18.1338 8.37988 18.2656 8.44824 18.4219C8.51986 18.5781 8.55404 18.7572 8.55078 18.959C8.55078 19.1576 8.51172 19.335 8.43359 19.4912C8.35872 19.6475 8.25618 19.7793 8.12598 19.8867C7.99577 19.9941 7.84603 20.0788 7.67676 20.1406C7.50749 20.1992 7.32845 20.2301 7.13965 20.2334H5.74805ZM7.00781 16.9229H5.74805V14.6621H6.9834C7.15918 14.6654 7.33008 14.6882 7.49609 14.7305C7.66536 14.7728 7.81348 14.8395 7.94043 14.9307C8.07064 15.0186 8.17318 15.1325 8.24805 15.2725C8.32617 15.4124 8.36523 15.5817 8.36523 15.7803C8.36523 15.9658 8.32617 16.1286 8.24805 16.2686C8.16992 16.4085 8.06738 16.5273 7.94043 16.625C7.81348 16.7194 7.66862 16.7926 7.50586 16.8447C7.3431 16.8936 7.17708 16.9196 7.00781 16.9229ZM15.1523 13.8906H10.8555V14.6768H12.5205V20.2188H10.8555V21H15.1523V20.2188H13.4482V14.6768H15.1523V13.8906ZM19.0098 17.4453L17.8525 13.8906H16.7344V21H17.6133V18.1631L17.54 15.2969L18.7461 19.0225H19.2637L20.5771 15.1943L20.5039 18.1631V21H21.3828V13.8906H20.2598L19.0098 17.4453Z" fill="#9CB4D3"/>
</svg>
