<svg width="32" height="32" viewBox="0 0 32 32" fill="none" xmlns="http://www.w3.org/2000/svg">
<path fill-rule="evenodd" clip-rule="evenodd" d="M16 32C7.16344 32 0 24.8366 0 16C0 7.16344 7.16344 0 16 0C24.8366 0 32 7.16344 32 16C32 24.8366 24.8366 32 16 32ZM16.0001 29.0914C23.23 29.0914 29.091 23.2304 29.091 16.0004C29.091 8.77053 23.23 2.90953 16.0001 2.90953C8.7702 2.90953 2.9092 8.77053 2.9092 16.0004C2.9092 23.2304 8.7702 29.0914 16.0001 29.0914ZM11.2105 22.8467L16.0002 18.0571L20.7899 22.8467L22.8469 20.7897L18.0572 16L22.8469 11.2104L20.7899 9.15331L16.0002 13.943L11.2105 9.15331L9.15341 11.2104L13.9431 16L9.15341 20.7897L11.2105 22.8467Z" fill="#004192"/>
</svg>
