<svg width="26" height="32" viewBox="0 0 26 32" fill="none" xmlns="http://www.w3.org/2000/svg">
<path fill-rule="evenodd" clip-rule="evenodd" d="M1 1V31H25V7.5H18V1H1ZM19.0858 1L24.5858 6.5H19V1H19.0858ZM19.5 0H19H18H1H0V1V31V32H1H25H26V31V6.5L19.5 0ZM13 21C15.7614 21 18 18.7614 18 16C18 13.2386 15.7614 11 13 11C10.2386 11 8 13.2386 8 16C8 17.6356 8.78534 19.0878 9.99951 20H10V20.0004C10.8357 20.6281 11.8744 21 13 21ZM7 16C7 17.777 7.7725 19.3736 9 20.4722V27V27.9716L9.79062 27.4069L13 25.1145L16.2094 27.4069L17 27.9716V27V20.5H16.9687C18.2144 19.4006 19 17.792 19 16C19 12.6863 16.3137 10 13 10C9.68629 10 7 12.6863 7 16ZM10 26.0284V21.1973C10.8825 21.7078 11.9071 22 13 22C14.0929 22 15.1175 21.7078 16 21.1973V26.0284L13.2906 24.0931L13 23.8855L12.7094 24.0931L10 26.0284Z" fill="#9CB4D3"/>
</svg>
