<svg width="24" height="24" viewBox="0 0 24 24" fill="none" xmlns="http://www.w3.org/2000/svg">
<path fill-rule="evenodd" clip-rule="evenodd" d="M13.5 5H3.5V4H13.5C14.3281 4 15 4.67163 15 5.5H18.9111C19.2266 5.5 19.5273 5.59888 19.7754 5.77417C19.8359 5.81714 19.8936 5.86475 19.9482 5.9165C20.0283 5.99268 20.0996 6.07788 20.1611 6.17114L20.1904 6.21582L20.2227 6.27148L22.4209 10.2273L23.7002 11.9333C23.8945 12.1929 24 12.5088 24 12.8333V17.5V18H23.5H21.8293C21.4175 19.1652 20.3062 20 19 20C17.6938 20 16.5825 19.1652 16.1707 18H9.82929C9.41746 19.1652 8.30622 20 7 20C5.69378 20 4.58254 19.1652 4.17071 18H1V17H4C4 15.3431 5.34315 14 7 14C8.65685 14 10 15.3431 10 17H16C16 15.3431 17.3431 14 19 14C20.6569 14 22 15.3431 22 17H23V12.8333C23 12.7251 22.9648 12.6199 22.9004 12.5334L21.75 11H14.5H14V10.5V5.5C14 5.38281 13.96 5.27515 13.8926 5.18994C13.8008 5.07422 13.6592 5 13.5 5ZM17 17C17 18.1046 17.8954 19 19 19C20.1046 19 21 18.1046 21 17C21 15.8954 20.1046 15 19 15C17.8954 15 17 15.8954 17 17ZM15 10V6.5H18.9111C18.9414 6.5 18.9717 6.50269 19.001 6.50806L19.0508 6.52002C19.0918 6.53174 19.1309 6.54858 19.167 6.57007C19.2422 6.6145 19.3047 6.67847 19.3486 6.75708L21.1504 10H15ZM8 7H1V8H8V7ZM1 13H5V14H1V13ZM7 19C8.10457 19 9 18.1046 9 17C9 15.8954 8.10457 15 7 15C5.89543 15 5 15.8954 5 17C5 18.1046 5.89543 19 7 19ZM7 10H0V11H7V10Z" fill="#6D6F81"/>
</svg>
