<svg width="48" height="48" viewBox="0 0 48 48" fill="none" xmlns="http://www.w3.org/2000/svg">
<path d="M45.1 13.6H32.3L31 10.5C32.1 9.7 32.9 8.3 32.9 6.8C32.9 4.6 31.4 2.8 29.3 2.3V1C29.3 0.4 28.9 0 28.3 0C27.7 0 27.3 0.4 27.3 1V2.3C25.2 2.8 23.7 4.6 23.7 6.8C23.7 8.3 24.4 9.6 25.6 10.5L24.4 13.6H2.9C1.3 13.6 0 14.9 0 16.5V45C0 46.7 1.3 48 2.9 48H45.1C46.7 48 48 46.7 48 45.1V16.5C48 14.9 46.7 13.6 45.1 13.6ZM28.3 4.2C29.7 4.2 30.9 5.4 30.9 6.8C30.9 8.2 29.7 9.4 28.3 9.4C26.9 9.4 25.7 8.2 25.7 6.8C25.7 5.4 26.8 4.2 28.3 4.2ZM27.3 11.4C27.6 11.5 27.9 11.5 28.2 11.5C28.5 11.5 28.8 11.5 29.1 11.4L31.6 17.6C30.8 17.8 30 17.9 29.2 18V17.3C29.2 16.7 28.8 16.3 28.2 16.3C27.6 16.3 27.2 16.7 27.2 17.3V18C26.4 17.9 25.6 17.8 24.8 17.6C24.9 17.4 27.5 11 27.3 11.4ZM2 16.5C2 16 2.4 15.6 2.9 15.6H11.2V15.9C11.2 21.1 7.1 25.3 2 25.4V16.5ZM46 45.1C46 45.6 45.6 46 45.1 46H2.9C2.4 46 2 45.6 2 45.1V27.4C8.2 27.2 13.2 22.2 13.2 15.9V15.6H23.4L22.9 16.9C22.7 16.8 22.6 16.8 22.4 16.7C21.9 16.5 21.3 16.7 21.1 17.2C20.9 17.7 21.1 18.3 21.6 18.5C21.8 18.6 22 18.6 22.1 18.7L19.7 24.6C19.5 25.1 19.7 25.7 20.3 25.9C20.8 26.1 21.4 25.9 21.6 25.3L24 19.3C25 19.6 26.1 19.7 27.2 19.8V20.2C27.2 20.8 27.6 21.2 28.2 21.2C28.8 21.2 29.2 20.8 29.2 20.2V19.8C30.3 19.7 31.3 19.6 32.4 19.3L34.8 25.4C35 25.9 35.6 26.2 36.1 26C36.6 25.8 36.9 25.2 36.7 24.7L34.3 18.8C34.5 18.7 34.7 18.7 34.8 18.6C35.3 18.4 35.5 17.8 35.3 17.3C35.1 16.8 34.5 16.6 34 16.8C33.8 16.9 33.7 16.9 33.5 17L33 15.7H45C45.5 15.7 45.9 16.1 45.9 16.6V45.1H46Z" fill="#004192"/>
<path d="M40.1004 41.2H7.90039C7.30039 41.2 6.90039 41.6 6.90039 42.2C6.90039 42.8 7.30039 43.2 7.90039 43.2H40.0004C40.6004 43.2 41.0004 42.8 41.0004 42.2C41.0004 41.6 40.6004 41.2 40.1004 41.2Z" fill="#004192"/>
</svg>
