<svg width="24" height="24" viewBox="0 0 24 24" fill="none" xmlns="http://www.w3.org/2000/svg">
<path d="M11.6849 3.78317L11.9928 4.02026L12.2986 3.78043C12.6155 3.53184 12.9569 3.31863 13.3214 3.14134C14.3044 2.66318 15.1575 2.50008 16.5522 2.50002C19.936 2.5145 22.5 5.34858 22.5 9.07526C22.5 11.8926 20.9209 14.684 17.818 17.4573C16.1887 18.9134 14.1088 20.3525 12.6376 21.1096L12 21.4377L11.3624 21.1096C9.89115 20.3525 7.81129 18.9134 6.18204 17.4573C3.07915 14.684 1.5 11.8926 1.5 9.07526C1.5 5.30493 4.03922 2.5 7.45455 2.5C8.79288 2.5 9.69468 2.67756 10.7013 3.1723C11.0516 3.34448 11.3799 3.54831 11.6849 3.78317Z" stroke="#6D6F81"/>
</svg>
