<svg width="24" height="24" viewBox="0 0 24 24" fill="none" xmlns="http://www.w3.org/2000/svg">
<path d="M11.9974 5.5022C8.34038 5.5022 5.36719 8.41451 5.36719 11.9976C5.36719 15.5765 8.34038 18.4934 11.9974 18.4934C15.6552 18.4934 18.6277 15.5762 18.6277 11.9976C18.6277 8.41451 15.6552 5.5022 11.9974 5.5022ZM11.9974 17.3908C8.96536 17.3908 6.49289 14.9739 6.49289 11.9976C6.49289 9.02684 8.96037 6.60489 11.9974 6.60489C15.0345 6.60489 17.502 9.0266 17.502 11.9976C17.502 14.969 15.0303 17.3908 11.9974 17.3908Z" fill="#6D6F81"/>
<path d="M22.6388 12.8893L22.2391 12.3491C22.051 12.0968 22.0463 11.7507 22.2349 11.494L22.6251 10.9491C22.9327 10.5214 23.043 9.98113 22.9195 9.4678C22.7953 8.95447 22.4555 8.51838 21.9819 8.27076L21.3844 7.95567C21.0992 7.80704 20.9483 7.501 20.9987 7.19007L21.1132 6.533C21.2005 6.01502 21.0583 5.48384 20.723 5.0744C20.3832 4.66447 19.8817 4.41733 19.3493 4.3946L18.6689 4.36771C18.3473 4.35402 18.0711 4.14209 17.9843 3.84069L17.787 3.20562C17.5572 2.42682 16.8172 1.88244 15.9856 1.88244C15.7329 1.88244 15.4802 1.93207 15.2456 2.03107L14.6207 2.29189C14.3313 2.41362 13.9775 2.33736 13.7709 2.10758L13.3161 1.61233C12.9625 1.22489 12.4528 1 11.9247 1C11.382 1 10.8678 1.22978 10.509 1.63018L10.0679 2.13447C9.86136 2.3684 9.51182 2.44956 9.21817 2.33271L8.58845 2.08093C8.35892 1.99073 8.12016 1.94136 7.8764 1.94136C7.03586 1.94136 6.29138 2.49527 6.07033 3.29191L5.8912 3.93529C5.80837 4.23718 5.53293 4.45327 5.21133 4.47111L4.53571 4.51169C4.00279 4.53858 3.50207 4.79524 3.17124 5.20933C2.83991 5.62342 2.70718 6.15949 2.80324 6.67258L2.92749 7.32549C2.98711 7.63593 2.83542 7.94687 2.55524 8.09964L1.9627 8.42378C1.49366 8.68044 1.15859 9.12142 1.04357 9.63476C0.928558 10.1481 1.04357 10.6881 1.36093 11.1112L1.76061 11.647C1.94873 11.8995 1.95372 12.2457 1.76485 12.5021L1.3744 13.047C1.06678 13.475 0.956501 14.015 1.08025 14.5283C1.2045 15.0416 1.5443 15.478 2.01759 15.7253L2.61512 16.0404C2.90029 16.189 3.05123 16.4951 3.00059 16.806L2.88607 17.4631C2.799 17.9803 2.94096 18.5122 3.27652 18.9217C3.61633 19.3316 4.11781 19.5788 4.64998 19.6012L5.33034 19.6281C5.65193 19.6418 5.92787 19.8533 6.01495 20.1549L6.20306 20.7941C6.43259 21.5729 7.17284 22.1178 8.00414 22.1178C8.25688 22.1178 8.50961 22.0684 8.74413 21.9692L9.36836 21.7081C9.65827 21.5869 10.0123 21.6631 10.2186 21.8929L10.6737 22.3877C11.0287 22.7751 11.5384 23 12.0666 23C12.6093 23 13.1235 22.7707 13.4822 22.3698L13.9273 21.8655C14.1344 21.6316 14.4834 21.5504 14.7776 21.6673L15.4068 21.9196C15.6363 22.0095 15.8759 22.0591 16.1194 22.0591C16.9599 22.0591 17.7044 21.5052 17.9247 20.7086L18.1038 20.0647C18.1866 19.7633 18.4626 19.5475 18.7842 19.5289L19.464 19.4888C20.002 19.4573 20.4979 19.2048 20.8285 18.7909C21.1598 18.3766 21.2926 17.8456 21.1965 17.3282L21.0723 16.6752C21.0126 16.3643 21.1643 16.0539 21.4445 15.9011L22.0371 15.5765C22.5061 15.32 22.8412 14.8788 22.9564 14.3657C23.0714 13.8524 22.9564 13.3124 22.6388 12.8893ZM21.8579 14.1269C21.8123 14.3342 21.6788 14.5053 21.4907 14.6092L20.8981 14.9333C20.1948 15.3156 19.8183 16.0944 19.965 16.8686L20.0893 17.5215C20.1307 17.7334 20.0753 17.9405 19.9426 18.107C19.8091 18.2737 19.616 18.3727 19.3957 18.3859L18.7201 18.4264C17.9159 18.4719 17.2313 19.0119 17.0203 19.7728L16.8411 20.4121C16.7538 20.7313 16.4549 20.952 16.1199 20.952C16.0228 20.952 15.9268 20.9342 15.8347 20.8983L15.205 20.646C14.9752 20.5558 14.7364 20.5062 14.4929 20.5062C13.9508 20.5062 13.4363 20.736 13.0781 21.1364L12.6322 21.6367C12.4898 21.7983 12.2874 21.8883 12.0669 21.8883C11.8513 21.8883 11.6532 21.803 11.5112 21.6455L11.0562 21.1503C10.7024 20.7631 10.1924 20.538 9.65952 20.538C9.4018 20.538 9.15405 20.5873 8.91953 20.6866L8.29455 20.9472C8.19825 20.9877 8.10219 21.0063 8.0009 21.0063C7.66957 21.0063 7.37592 20.7895 7.28386 20.4793L7.09574 19.8401C6.87045 19.084 6.18086 18.5523 5.37675 18.5166L4.69688 18.4898C4.48057 18.481 4.28322 18.3859 4.14999 18.2194C4.01228 18.0529 3.95764 17.8461 3.99406 17.6388L4.10858 16.9818C4.24206 16.2027 3.85634 15.433 3.14379 15.0595L2.54676 14.7444C2.35365 14.6454 2.22018 14.474 2.16978 14.267C2.11938 14.0599 2.16055 13.8485 2.28929 13.6774L2.67974 13.1325C3.14379 12.4894 3.13955 11.6294 2.66153 10.9902L2.26184 10.4544C2.13335 10.283 2.08695 10.0718 2.13759 9.86478C2.184 9.65773 2.31723 9.48638 2.5056 9.38322L3.09814 9.05909C3.80096 8.67653 4.17819 7.89773 4.03074 7.12309L3.91123 6.47507C3.86982 6.26313 3.9252 6.05609 4.05793 5.88962C4.19141 5.72316 4.38452 5.62416 4.60482 5.61096L5.28044 5.57038C6.08455 5.52491 6.76417 4.98493 6.98048 4.22398L7.15961 3.5806C7.24669 3.26062 7.54583 3.03989 7.88089 3.03989C7.9777 3.03989 8.074 3.05847 8.16606 3.09416L8.79578 3.34593C9.02531 3.43613 9.26408 3.48551 9.50783 3.48551C10.05 3.48551 10.5647 3.25573 10.9227 2.85533L11.3685 2.35593C11.511 2.19362 11.7133 2.10342 11.9339 2.10342C12.1494 2.10342 12.3475 2.18947 12.4895 2.34689L12.9443 2.84164C13.2984 3.22884 13.8081 3.45398 14.3412 3.45398C14.5987 3.45398 14.8467 3.40436 15.0812 3.30536L15.7062 3.04453C15.8025 3.00396 15.8986 2.98611 15.9999 2.98611C16.3312 2.98611 16.6248 3.2022 16.7169 3.5124L16.905 4.15211C17.1303 4.90818 17.8199 5.43936 18.624 5.47529L19.3039 5.50267C19.5202 5.51171 19.7175 5.60582 19.8552 5.77253C19.9935 5.939 20.0481 6.14604 20.0117 6.35309L19.8967 7.01064C19.7632 7.78944 20.1494 8.55871 20.8614 8.93296L21.459 9.24804C21.6521 9.34656 21.7851 9.51791 21.8355 9.72496C21.8861 9.932 21.8452 10.1439 21.7209 10.3146L21.3307 10.8594C20.8667 11.5033 20.8707 12.3628 21.349 13.0027L21.7486 13.5378C21.8579 13.7087 21.9043 13.9199 21.8579 14.1269Z" fill="#6D6F81"/>
<path d="M13.6287 10.2109L11.166 12.6099L10.3661 11.8221C10.1456 11.606 9.79177 11.606 9.57122 11.8221C9.35067 12.0381 9.35067 12.3848 9.56698 12.6011L10.7663 13.7808C10.8716 13.8839 11.0143 13.9426 11.166 13.9426C11.3127 13.9426 11.4554 13.8839 11.5612 13.7808L14.4236 10.9939C14.6441 10.7778 14.6441 10.4312 14.4286 10.2151C14.208 9.99899 13.8493 9.99899 13.6287 10.2109Z" fill="#6D6F81"/>
</svg>
