<svg width="16" height="16" viewBox="0 0 16 16" fill="none" xmlns="http://www.w3.org/2000/svg">
<path d="M7.94084 1.41294C8.33102 1.41294 8.64731 1.09664 8.64731 0.70647C8.64731 0.316297 8.33102 0 7.94084 0C7.55067 0 7.23438 0.316297 7.23438 0.70647C7.23438 1.09664 7.55067 1.41294 7.94084 1.41294Z" fill="#9CB4D3"/>
<path d="M7.94084 2.90708C8.33102 2.90708 8.64731 2.59078 8.64731 2.20061C8.64731 1.81044 8.33102 1.49414 7.94084 1.49414C7.55067 1.49414 7.23438 1.81044 7.23438 2.20061C7.23438 2.59078 7.55067 2.90708 7.94084 2.90708Z" fill="#9CB4D3"/>
<path d="M6.41008 2.90708C6.80026 2.90708 7.11655 2.59078 7.11655 2.20061C7.11655 1.81044 6.80026 1.49414 6.41008 1.49414C6.01991 1.49414 5.70361 1.81044 5.70361 2.20061C5.70361 2.59078 6.01991 2.90708 6.41008 2.90708Z" fill="#9CB4D3"/>
<path d="M9.45256 2.90708C9.84274 2.90708 10.159 2.59078 10.159 2.20061C10.159 1.81044 9.84274 1.49414 9.45256 1.49414C9.06239 1.49414 8.74609 1.81044 8.74609 2.20061C8.74609 2.59078 9.06239 2.90708 9.45256 2.90708Z" fill="#9CB4D3"/>
<path d="M7.94084 4.39194C8.33102 4.39194 8.64731 4.07565 8.64731 3.68547C8.64731 3.2953 8.33102 2.979 7.94084 2.979C7.55067 2.979 7.23438 3.2953 7.23438 3.68547C7.23438 4.07565 7.55067 4.39194 7.94084 4.39194Z" fill="#9CB4D3"/>
<path d="M6.41008 4.39194C6.80026 4.39194 7.11655 4.07565 7.11655 3.68547C7.11655 3.2953 6.80026 2.979 6.41008 2.979C6.01991 2.979 5.70361 3.2953 5.70361 3.68547C5.70361 4.07565 6.01991 4.39194 6.41008 4.39194Z" fill="#9CB4D3"/>
<path d="M9.45256 4.39194C9.84274 4.39194 10.159 4.07565 10.159 3.68547C10.159 3.2953 9.84274 2.979 9.45256 2.979C9.06239 2.979 8.74609 3.2953 8.74609 3.68547C8.74609 4.07565 9.06239 4.39194 9.45256 4.39194Z" fill="#9CB4D3"/>
<path d="M10.9648 4.39194C11.3549 4.39194 11.6712 4.07565 11.6712 3.68547C11.6712 3.2953 11.3549 2.979 10.9648 2.979C10.5746 2.979 10.2583 3.2953 10.2583 3.68547C10.2583 4.07565 10.5746 4.39194 10.9648 4.39194Z" fill="#9CB4D3"/>
<path d="M4.89397 4.39194C5.28414 4.39194 5.60044 4.07565 5.60044 3.68547C5.60044 3.2953 5.28414 2.979 4.89397 2.979C4.5038 2.979 4.1875 3.2953 4.1875 3.68547C4.1875 4.07565 4.5038 4.39194 4.89397 4.39194Z" fill="#9CB4D3"/>
<path d="M6.41001 5.78608C6.75969 5.78608 7.04317 5.50261 7.04317 5.15293C7.04317 4.80325 6.75969 4.51978 6.41001 4.51978C6.06033 4.51978 5.77686 4.80325 5.77686 5.15293C5.77686 5.50261 6.06033 5.78608 6.41001 5.78608Z" fill="#9CB4D3"/>
<path d="M9.45249 5.78608C9.80217 5.78608 10.0856 5.50261 10.0856 5.15293C10.0856 4.80325 9.80217 4.51978 9.45249 4.51978C9.10281 4.51978 8.81934 4.80325 8.81934 5.15293C8.81934 5.50261 9.10281 5.78608 9.45249 5.78608Z" fill="#9CB4D3"/>
<path d="M10.9647 5.80464C11.3144 5.80464 11.5979 5.52117 11.5979 5.17148C11.5979 4.8218 11.3144 4.53833 10.9647 4.53833C10.615 4.53833 10.3315 4.8218 10.3315 5.17148C10.3315 5.52117 10.615 5.80464 10.9647 5.80464Z" fill="#9CB4D3"/>
<path d="M4.8939 5.78608C5.24358 5.78608 5.52705 5.50261 5.52705 5.15293C5.52705 4.80325 5.24358 4.51978 4.8939 4.51978C4.54422 4.51978 4.26074 4.80325 4.26074 5.15293C4.26074 5.50261 4.54422 5.78608 4.8939 5.78608Z" fill="#9CB4D3"/>
<path d="M7.94077 5.78608C8.29045 5.78608 8.57393 5.50261 8.57393 5.15293C8.57393 4.80325 8.29045 4.51978 7.94077 4.51978C7.59109 4.51978 7.30762 4.80325 7.30762 5.15293C7.30762 5.50261 7.59109 5.78608 7.94077 5.78608Z" fill="#9CB4D3"/>
<path d="M12.4847 5.78608C12.8344 5.78608 13.1179 5.50261 13.1179 5.15293C13.1179 4.80325 12.8344 4.51978 12.4847 4.51978C12.135 4.51978 11.8516 4.80325 11.8516 5.15293C11.8516 5.50261 12.135 5.78608 12.4847 5.78608Z" fill="#9CB4D3"/>
<path d="M3.40415 5.78608C3.75383 5.78608 4.03731 5.50261 4.03731 5.15293C4.03731 4.80325 3.75383 4.51978 3.40415 4.51978C3.05447 4.51978 2.771 4.80325 2.771 5.15293C2.771 5.50261 3.05447 5.78608 3.40415 5.78608Z" fill="#9CB4D3"/>
<path d="M6.41001 7.24312C6.75969 7.24312 7.04317 6.95964 7.04317 6.60996C7.04317 6.26028 6.75969 5.97681 6.41001 5.97681C6.06033 5.97681 5.77686 6.26028 5.77686 6.60996C5.77686 6.95964 6.06033 7.24312 6.41001 7.24312Z" fill="#9CB4D3"/>
<path d="M9.45249 7.24312C9.80217 7.24312 10.0856 6.95964 10.0856 6.60996C10.0856 6.26028 9.80217 5.97681 9.45249 5.97681C9.10281 5.97681 8.81934 6.26028 8.81934 6.60996C8.81934 6.95964 9.10281 7.24312 9.45249 7.24312Z" fill="#9CB4D3"/>
<path d="M10.9647 7.26192C11.3144 7.26192 11.5979 6.97844 11.5979 6.62876C11.5979 6.27908 11.3144 5.99561 10.9647 5.99561C10.615 5.99561 10.3315 6.27908 10.3315 6.62876C10.3315 6.97844 10.615 7.26192 10.9647 7.26192Z" fill="#9CB4D3"/>
<path d="M4.8939 7.24312C5.24358 7.24312 5.52705 6.95964 5.52705 6.60996C5.52705 6.26028 5.24358 5.97681 4.8939 5.97681C4.54422 5.97681 4.26074 6.26028 4.26074 6.60996C4.26074 6.95964 4.54422 7.24312 4.8939 7.24312Z" fill="#9CB4D3"/>
<path d="M7.94077 7.24312C8.29045 7.24312 8.57393 6.95964 8.57393 6.60996C8.57393 6.26028 8.29045 5.97681 7.94077 5.97681C7.59109 5.97681 7.30762 6.26028 7.30762 6.60996C7.30762 6.95964 7.59109 7.24312 7.94077 7.24312Z" fill="#9CB4D3"/>
<path d="M12.4847 7.24312C12.8344 7.24312 13.1179 6.95964 13.1179 6.60996C13.1179 6.26028 12.8344 5.97681 12.4847 5.97681C12.135 5.97681 11.8516 6.26028 11.8516 6.60996C11.8516 6.95964 12.135 7.24312 12.4847 7.24312Z" fill="#9CB4D3"/>
<path d="M3.40415 7.24312C3.75383 7.24312 4.03731 6.95964 4.03731 6.60996C4.03731 6.26028 3.75383 5.97681 3.40415 5.97681C3.05447 5.97681 2.771 6.26028 2.771 6.60996C2.771 6.95964 3.05447 7.24312 3.40415 7.24312Z" fill="#9CB4D3"/>
<path d="M13.9652 7.24312C14.3149 7.24312 14.5983 6.95964 14.5983 6.60996C14.5983 6.26028 14.3149 5.97681 13.9652 5.97681C13.6155 5.97681 13.332 6.26028 13.332 6.60996C13.332 6.95964 13.6155 7.24312 13.9652 7.24312Z" fill="#9CB4D3"/>
<path d="M1.98032 7.24312C2.33 7.24312 2.61348 6.95964 2.61348 6.60996C2.61348 6.26028 2.33 5.97681 1.98032 5.97681C1.63064 5.97681 1.34717 6.26028 1.34717 6.60996C1.34717 6.95964 1.63064 7.24312 1.98032 7.24312Z" fill="#9CB4D3"/>
<path d="M12.4846 8.6631C12.7911 8.6631 13.0396 8.41465 13.0396 8.10816C13.0396 7.80168 12.7911 7.55322 12.4846 7.55322C12.1781 7.55322 11.9297 7.80168 11.9297 8.10816C11.9297 8.41465 12.1781 8.6631 12.4846 8.6631Z" fill="#9CB4D3"/>
<path d="M10.9646 8.6631C11.2711 8.6631 11.5195 8.41465 11.5195 8.10816C11.5195 7.80168 11.2711 7.55322 10.9646 7.55322C10.6581 7.55322 10.4097 7.80168 10.4097 8.10816C10.4097 8.41465 10.6581 8.6631 10.9646 8.6631Z" fill="#9CB4D3"/>
<path d="M9.4524 8.6631C9.75889 8.6631 10.0073 8.41465 10.0073 8.10816C10.0073 7.80168 9.75889 7.55322 9.4524 7.55322C9.14592 7.55322 8.89746 7.80168 8.89746 8.10816C8.89746 8.41465 9.14592 8.6631 9.4524 8.6631Z" fill="#9CB4D3"/>
<path d="M7.94068 8.6631C8.24717 8.6631 8.49562 8.41465 8.49562 8.10816C8.49562 7.80168 8.24717 7.55322 7.94068 7.55322C7.6342 7.55322 7.38574 7.80168 7.38574 8.10816C7.38574 8.41465 7.6342 8.6631 7.94068 8.6631Z" fill="#9CB4D3"/>
<path d="M6.40992 8.6631C6.71641 8.6631 6.96486 8.41465 6.96486 8.10816C6.96486 7.80168 6.71641 7.55322 6.40992 7.55322C6.10344 7.55322 5.85498 7.80168 5.85498 8.10816C5.85498 8.41465 6.10344 8.6631 6.40992 8.6631Z" fill="#9CB4D3"/>
<path d="M3.40455 8.6631C3.71104 8.6631 3.95949 8.41465 3.95949 8.10816C3.95949 7.80168 3.71104 7.55322 3.40455 7.55322C3.09806 7.55322 2.84961 7.80168 2.84961 8.10816C2.84961 8.41465 3.09806 8.6631 3.40455 8.6631Z" fill="#9CB4D3"/>
<path d="M4.89381 8.6631C5.20029 8.6631 5.44875 8.41465 5.44875 8.10816C5.44875 7.80168 5.20029 7.55322 4.89381 7.55322C4.58732 7.55322 4.33887 7.80168 4.33887 8.10816C4.33887 8.41465 4.58732 8.6631 4.89381 8.6631Z" fill="#9CB4D3"/>
<path d="M1.98072 8.6631C2.28721 8.6631 2.53566 8.41465 2.53566 8.10816C2.53566 7.80168 2.28721 7.55322 1.98072 7.55322C1.67424 7.55322 1.42578 7.80168 1.42578 8.10816C1.42578 8.41465 1.67424 8.6631 1.98072 8.6631Z" fill="#9CB4D3"/>
<path d="M0.554941 8.6631C0.861426 8.6631 1.10988 8.41465 1.10988 8.10816C1.10988 7.80168 0.861426 7.55322 0.554941 7.55322C0.248455 7.55322 0 7.80168 0 8.10816C0 8.41465 0.248455 8.6631 0.554941 8.6631Z" fill="#9CB4D3"/>
<path d="M13.9656 8.6631C14.2721 8.6631 14.5205 8.41465 14.5205 8.10816C14.5205 7.80168 14.2721 7.55322 13.9656 7.55322C13.6591 7.55322 13.4106 7.80168 13.4106 8.10816C13.4106 8.41465 13.6591 8.6631 13.9656 8.6631Z" fill="#9CB4D3"/>
<path d="M15.4456 8.6631C15.7521 8.6631 16.0005 8.41465 16.0005 8.10816C16.0005 7.80168 15.7521 7.55322 15.4456 7.55322C15.1391 7.55322 14.8906 7.80168 14.8906 8.10816C14.8906 8.41465 15.1391 8.6631 15.4456 8.6631Z" fill="#9CB4D3"/>
<path d="M7.94061 10.1442C8.21793 10.1442 8.44274 9.91935 8.44274 9.64203C8.44274 9.36471 8.21793 9.13989 7.94061 9.13989C7.66329 9.13989 7.43848 9.36471 7.43848 9.64203C7.43848 9.91935 7.66329 10.1442 7.94061 10.1442Z" fill="#9CB4D3"/>
<path d="M7.94062 11.536C8.19098 11.536 8.39394 11.3331 8.39394 11.0827C8.39394 10.8324 8.19098 10.6294 7.94062 10.6294C7.69026 10.6294 7.4873 10.8324 7.4873 11.0827C7.4873 11.3331 7.69026 11.536 7.94062 11.536Z" fill="#9CB4D3"/>
<path d="M7.94096 12.9727C8.16696 12.9727 8.35018 12.7895 8.35018 12.5635C8.35018 12.3375 8.16696 12.1543 7.94096 12.1543C7.71495 12.1543 7.53174 12.3375 7.53174 12.5635C7.53174 12.7895 7.71495 12.9727 7.94096 12.9727Z" fill="#9CB4D3"/>
<path d="M7.94103 14.4753C8.14388 14.4753 8.30833 14.3109 8.30833 14.108C8.30833 13.9052 8.14388 13.7407 7.94103 13.7407C7.73818 13.7407 7.57373 13.9052 7.57373 14.108C7.57373 14.3109 7.73818 14.4753 7.94103 14.4753Z" fill="#9CB4D3"/>
<path d="M7.94102 16C8.10719 16 8.2419 15.8652 8.2419 15.6991C8.2419 15.5329 8.10719 15.3982 7.94102 15.3982C7.77485 15.3982 7.64014 15.5329 7.64014 15.6991C7.64014 15.8652 7.77485 16 7.94102 16Z" fill="#9CB4D3"/>
<path d="M9.45233 10.1442C9.72965 10.1442 9.95446 9.91935 9.95446 9.64203C9.95446 9.36471 9.72965 9.13989 9.45233 9.13989C9.17501 9.13989 8.9502 9.36471 8.9502 9.64203C8.9502 9.91935 9.17501 10.1442 9.45233 10.1442Z" fill="#9CB4D3"/>
<path d="M10.9645 10.1442C11.2419 10.1442 11.4667 9.91935 11.4667 9.64203C11.4667 9.36471 11.2419 9.13989 10.9645 9.13989C10.6872 9.13989 10.4624 9.36471 10.4624 9.64203C10.4624 9.91935 10.6872 10.1442 10.9645 10.1442Z" fill="#9CB4D3"/>
<path d="M12.485 10.1442C12.7624 10.1442 12.9872 9.91935 12.9872 9.64203C12.9872 9.36471 12.7624 9.13989 12.485 9.13989C12.2077 9.13989 11.9829 9.36471 11.9829 9.64203C11.9829 9.91935 12.2077 10.1442 12.485 10.1442Z" fill="#9CB4D3"/>
<path d="M4.89373 10.1442C5.17105 10.1442 5.39587 9.91935 5.39587 9.64203C5.39587 9.36471 5.17105 9.13989 4.89373 9.13989C4.61641 9.13989 4.3916 9.36471 4.3916 9.64203C4.3916 9.91935 4.61641 10.1442 4.89373 10.1442Z" fill="#9CB4D3"/>
<path d="M6.40985 10.1442C6.68717 10.1442 6.91198 9.91935 6.91198 9.64203C6.91198 9.36471 6.68717 9.13989 6.40985 9.13989C6.13253 9.13989 5.90771 9.36471 5.90771 9.64203C5.90771 9.91935 6.13253 10.1442 6.40985 10.1442Z" fill="#9CB4D3"/>
<path d="M1.98065 10.1442C2.25797 10.1442 2.48278 9.91935 2.48278 9.64203C2.48278 9.36471 2.25797 9.13989 1.98065 9.13989C1.70333 9.13989 1.47852 9.36471 1.47852 9.64203C1.47852 9.91935 1.70333 10.1442 1.98065 10.1442Z" fill="#9CB4D3"/>
<path d="M3.40448 10.1442C3.6818 10.1442 3.90661 9.91935 3.90661 9.64203C3.90661 9.36471 3.6818 9.13989 3.40448 9.13989C3.12716 9.13989 2.90234 9.36471 2.90234 9.64203C2.90234 9.91935 3.12716 10.1442 3.40448 10.1442Z" fill="#9CB4D3"/>
<path d="M13.9655 10.1442C14.2428 10.1442 14.4676 9.91935 14.4676 9.64203C14.4676 9.36471 14.2428 9.13989 13.9655 9.13989C13.6882 9.13989 13.4634 9.36471 13.4634 9.64203C13.4634 9.91935 13.6882 10.1442 13.9655 10.1442Z" fill="#9CB4D3"/>
<path d="M9.45234 11.536C9.7027 11.536 9.90566 11.3331 9.90566 11.0827C9.90566 10.8324 9.7027 10.6294 9.45234 10.6294C9.20198 10.6294 8.99902 10.8324 8.99902 11.0827C8.99902 11.3331 9.20198 11.536 9.45234 11.536Z" fill="#9CB4D3"/>
<path d="M4.89375 11.536C5.14411 11.536 5.34706 11.3331 5.34706 11.0827C5.34706 10.8324 5.14411 10.6294 4.89375 10.6294C4.64339 10.6294 4.44043 10.8324 4.44043 11.0827C4.44043 11.3331 4.64339 11.536 4.89375 11.536Z" fill="#9CB4D3"/>
<path d="M6.40986 11.536C6.66022 11.536 6.86318 11.3331 6.86318 11.0827C6.86318 10.8324 6.66022 10.6294 6.40986 10.6294C6.1595 10.6294 5.95654 10.8324 5.95654 11.0827C5.95654 11.3331 6.1595 11.536 6.40986 11.536Z" fill="#9CB4D3"/>
<path d="M10.9645 11.536C11.2149 11.536 11.4179 11.3331 11.4179 11.0827C11.4179 10.8324 11.2149 10.6294 10.9645 10.6294C10.7142 10.6294 10.5112 10.8324 10.5112 11.0827C10.5112 11.3331 10.7142 11.536 10.9645 11.536Z" fill="#9CB4D3"/>
<path d="M12.4851 11.536C12.7354 11.536 12.9384 11.3331 12.9384 11.0827C12.9384 10.8324 12.7354 10.6294 12.4851 10.6294C12.2347 10.6294 12.0317 10.8324 12.0317 11.0827C12.0317 11.3331 12.2347 11.536 12.4851 11.536Z" fill="#9CB4D3"/>
<path d="M3.40449 11.536C3.65485 11.536 3.8578 11.3331 3.8578 11.0827C3.8578 10.8324 3.65485 10.6294 3.40449 10.6294C3.15413 10.6294 2.95117 10.8324 2.95117 11.0827C2.95117 11.3331 3.15413 11.536 3.40449 11.536Z" fill="#9CB4D3"/>
<path d="M9.45268 12.9727C9.67868 12.9727 9.86189 12.7895 9.86189 12.5635C9.86189 12.3375 9.67868 12.1543 9.45268 12.1543C9.22667 12.1543 9.04346 12.3375 9.04346 12.5635C9.04346 12.7895 9.22667 12.9727 9.45268 12.9727Z" fill="#9CB4D3"/>
<path d="M4.89359 12.9727C5.1196 12.9727 5.30281 12.7895 5.30281 12.5635C5.30281 12.3375 5.1196 12.1543 4.89359 12.1543C4.66759 12.1543 4.48438 12.3375 4.48438 12.5635C4.48438 12.7895 4.66759 12.9727 4.89359 12.9727Z" fill="#9CB4D3"/>
<path d="M6.4102 12.9727C6.6362 12.9727 6.81941 12.7895 6.81941 12.5635C6.81941 12.3375 6.6362 12.1543 6.4102 12.1543C6.18419 12.1543 6.00098 12.3375 6.00098 12.5635C6.00098 12.7895 6.18419 12.9727 6.4102 12.9727Z" fill="#9CB4D3"/>
<path d="M10.9649 12.9727C11.1909 12.9727 11.3741 12.7895 11.3741 12.5635C11.3741 12.3375 11.1909 12.1543 10.9649 12.1543C10.7389 12.1543 10.5557 12.3375 10.5557 12.5635C10.5557 12.7895 10.7389 12.9727 10.9649 12.9727Z" fill="#9CB4D3"/>
<path d="M9.45226 14.4753C9.65511 14.4753 9.81956 14.3109 9.81956 14.108C9.81956 13.9052 9.65511 13.7407 9.45226 13.7407C9.24941 13.7407 9.08496 13.9052 9.08496 14.108C9.08496 14.3109 9.24941 14.4753 9.45226 14.4753Z" fill="#9CB4D3"/>
<path d="M6.41027 14.4753C6.61312 14.4753 6.77757 14.3109 6.77757 14.108C6.77757 13.9052 6.61312 13.7407 6.41027 13.7407C6.20741 13.7407 6.04297 13.9052 6.04297 14.108C6.04297 14.3109 6.20741 14.4753 6.41027 14.4753Z" fill="#9CB4D3"/>
</svg>
