<svg width="26" height="32" viewBox="0 0 26 32" fill="none" xmlns="http://www.w3.org/2000/svg">
<path fill-rule="evenodd" clip-rule="evenodd" d="M1 31H25V7.5H18V1H1V31ZM19.0858 1L24.5858 6.5H19V1H19.0858ZM19.5 0H19H18H1H0V1V31V32H1H25H26V31V6.5L19.5 0ZM9.14648 13.8906H4.84961V14.6768H6.51465V20.2188H4.84961V21H9.14648V20.2188H7.44238V14.6768H9.14648V13.8906ZM11.7979 17.7139H14.7666V16.9473H11.7979V14.6621H15.2158V13.8906H10.8945V21H15.2598V20.2334H11.7979V17.7139ZM20.4307 18.6514C20.5316 18.8011 20.582 18.985 20.582 19.2031C20.582 19.3984 20.5397 19.5677 20.4551 19.7109C20.3704 19.8509 20.2614 19.9681 20.1279 20.0625C19.9945 20.1536 19.8415 20.222 19.6689 20.2676C19.4997 20.3099 19.3271 20.3311 19.1514 20.3311C18.93 20.3311 18.7249 20.3018 18.5361 20.2432C18.3506 20.1813 18.1862 20.0918 18.043 19.9746C17.8997 19.8542 17.7826 19.7093 17.6914 19.54C17.6003 19.3675 17.54 19.1706 17.5107 18.9492H16.5879C16.5977 19.2878 16.6774 19.5905 16.8271 19.8574C16.9769 20.1211 17.1706 20.3457 17.4082 20.5312C17.6491 20.7135 17.9209 20.8535 18.2236 20.9512C18.5264 21.0488 18.8356 21.0977 19.1514 21.0977C19.4346 21.0977 19.7178 21.0586 20.001 20.9805C20.2842 20.8991 20.5381 20.7803 20.7627 20.624C20.9873 20.4645 21.1696 20.266 21.3096 20.0283C21.4528 19.7907 21.5244 19.5124 21.5244 19.1934C21.5244 18.9818 21.4935 18.7897 21.4316 18.6172C21.373 18.4414 21.29 18.2819 21.1826 18.1387C21.0752 17.9922 20.9499 17.862 20.8066 17.748C20.6634 17.6341 20.5088 17.5316 20.3428 17.4404C20.1768 17.3493 20.0042 17.2695 19.8252 17.2012C19.6462 17.1296 19.4688 17.0661 19.293 17.0107C19.1335 16.9619 18.9626 16.9049 18.7803 16.8398C18.6012 16.7747 18.4336 16.6934 18.2773 16.5957C18.1243 16.498 17.9974 16.3792 17.8965 16.2393C17.7956 16.096 17.7435 15.9219 17.7402 15.7168C17.7402 15.528 17.7777 15.362 17.8525 15.2188C17.9307 15.0755 18.0332 14.9551 18.1602 14.8574C18.2904 14.7598 18.4368 14.6865 18.5996 14.6377C18.7656 14.5889 18.9349 14.5645 19.1074 14.5645C19.3223 14.5645 19.5143 14.5986 19.6836 14.667C19.8561 14.7321 20.0042 14.8249 20.1279 14.9453C20.2516 15.0658 20.3509 15.2106 20.4258 15.3799C20.5007 15.5459 20.5511 15.7314 20.5771 15.9365H21.5049C21.4984 15.611 21.4284 15.3164 21.2949 15.0527C21.1615 14.7891 20.984 14.5645 20.7627 14.3789C20.5413 14.1934 20.2874 14.0501 20.001 13.9492C19.7145 13.8451 19.4167 13.793 19.1074 13.793C18.8275 13.793 18.5492 13.8369 18.2725 13.9248C17.9958 14.0094 17.7484 14.1348 17.5303 14.3008C17.3122 14.4668 17.1348 14.6702 16.998 14.9111C16.8646 15.152 16.7979 15.4255 16.7979 15.7314C16.7979 16.0374 16.8646 16.3044 16.998 16.5322C17.1348 16.7568 17.3089 16.9521 17.5205 17.1182C17.7354 17.2842 17.9714 17.4242 18.2285 17.5381C18.4889 17.652 18.7445 17.7497 18.9951 17.8311C19.1676 17.8864 19.3467 17.9482 19.5322 18.0166C19.721 18.085 19.8936 18.1712 20.0498 18.2754C20.2061 18.3763 20.333 18.5016 20.4307 18.6514Z" fill="#9CB4D3"/>
</svg>
