<svg width="24" height="24" viewBox="0 0 24 24" fill="none" xmlns="http://www.w3.org/2000/svg">
<path fill-rule="evenodd" clip-rule="evenodd" d="M22 2H2L2 22H22V2ZM2 0C0.895431 0 0 0.89543 0 2V22C0 23.1046 0.89543 24 2 24H22C23.1046 24 24 23.1046 24 22V2C24 0.895431 23.1046 0 22 0H2ZM11 17C13.2091 17 15 15.2091 15 13C15 10.7909 13.2091 9 11 9C8.79086 9 7 10.7909 7 13C7 15.2091 8.79086 17 11 17ZM11 19C14.3137 19 17 16.3137 17 13C17 9.68629 14.3137 7 11 7C7.68629 7 5 9.68629 5 13C5 16.3137 7.68629 19 11 19ZM17 6.5C17 6.22386 17.2239 6 17.5 6C17.7761 6 18 6.22386 18 6.5C18 6.77614 17.7761 7 17.5 7C17.2239 7 17 6.77614 17 6.5ZM19 6.5C19 7.32843 18.3284 8 17.5 8C16.6716 8 16 7.32843 16 6.5C16 5.67157 16.6716 5 17.5 5C18.3284 5 19 5.67157 19 6.5Z" fill="url(#paint0_linear)"/>
<defs>
<linearGradient id="paint0_linear" x1="17.5" y1="0" x2="17.5" y2="23.5" gradientUnits="userSpaceOnUse">
<stop stop-color="#8746CA"/>
<stop offset="0.536458" stop-color="#CE417E"/>
<stop offset="1" stop-color="#E4A556"/>
</linearGradient>
</defs>
</svg>
