<svg width="16" height="16" viewBox="0 0 16 16" fill="none" xmlns="http://www.w3.org/2000/svg">
<path fill-rule="evenodd" clip-rule="evenodd" d="M10.445 3.54239C10.0239 3.03025 9.52966 2.5787 8.97791 2.20317L11.2173 0L12.6315 1.39128L10.445 3.54239ZM11.9999 7.87042C11.9999 7.58118 11.9818 7.29607 11.9466 7.0162H15.9999V8.9838H11.9089C11.9688 8.62136 11.9999 8.24949 11.9999 7.87042ZM8.82031 13.6419C9.38342 13.2804 9.89026 12.8413 10.3254 12.34L12.6314 14.6087L11.2172 16L8.82031 13.6419ZM5 12.7894C7.76141 12.7894 10 10.5871 10 7.87042C10 5.15373 7.76141 2.95141 5 2.95141C2.23859 2.95141 0 5.15373 0 7.87042C0 10.5871 2.23859 12.7894 5 12.7894Z" fill="#9CB4D3"/>
</svg>
