<svg width="32" height="32" viewBox="0 0 32 32" fill="none" xmlns="http://www.w3.org/2000/svg">
<path fill-rule="evenodd" clip-rule="evenodd" d="M10 2H22V6H10V2ZM8 1C8 0.447716 8.44775 0 9 0H23C23.5522 0 24 0.447716 24 1V3H28C28.5522 3 29 3.44772 29 4V31C29 31.5523 28.5522 32 28 32H4C3.44775 32 3 31.5523 3 31V4C3 3.44772 3.44775 3 4 3H8V1ZM24 7C24 7.55228 23.5522 8 23 8H9C8.44775 8 8 7.55228 8 7V5H5V30H27V5H24V7ZM8 13H11V15H8V13ZM11 17H8V19H11V17ZM13 17H24V19H13V17ZM24 21H13V23H24V21ZM8 21H11V23H8V21ZM24 13H13V15H24V13Z" fill="#004192"/>
</svg>
