<svg width="32" height="32" viewBox="0 0 32 32" fill="none" xmlns="http://www.w3.org/2000/svg">
<path fill-rule="evenodd" clip-rule="evenodd" d="M10 2V6H22V2H10ZM9 0C8.44772 0 8 0.447715 8 1V3H4C3.44772 3 3 3.44772 3 4V31C3 31.5523 3.44772 32 4 32H28C28.5523 32 29 31.5523 29 31V4C29 3.44772 28.5523 3 28 3H24V1C24 0.447715 23.5523 0 23 0H9ZM23 8C23.5523 8 24 7.55228 24 7V5H27V30H5V5H8V7C8 7.55228 8.44772 8 9 8H23ZM15.2526 23.6585L22.2526 15.6585L20.7474 14.3415L14.4513 21.5371L10.7071 17.7929L9.29289 19.2071L13.7929 23.7071L14.5487 24.4629L15.2526 23.6585Z" fill="#87C61F"/>
</svg>
