<svg width="48" height="36" viewBox="0 0 48 36" fill="none" xmlns="http://www.w3.org/2000/svg">
<path fill-rule="evenodd" clip-rule="evenodd" d="M46.9053 1H37.9053V7H46.9053V1ZM28.9053 1H36.9053V7H28.9053V1ZM19.9053 1H27.9053V7H19.9053V1ZM10.9053 1H18.9053V7H10.9053V1ZM1.90527 1H9.90527V7H1.90527V1ZM0.905273 7V8V28V29V35V36H1.90527H46.9053H47.9053V35V29V28V8V7V1V0H46.9053H1.90527H0.905273V1V7ZM1.90527 8V28H46.9053V8H1.90527ZM1.90527 35V29H9.90527V35H1.90527ZM18.9053 35H10.9053V29H18.9053V35ZM27.9053 35H19.9053V29H27.9053V35ZM36.9053 35H28.9053V29H36.9053V35ZM46.9053 35H37.9053V29H46.9053V35ZM18.9053 22.8503V13.7139C18.9053 12.9481 19.7307 12.4665 20.3973 12.8433L28.8029 17.5942C29.4932 17.9845 29.4764 18.9846 28.7734 19.3514L20.3678 23.7369C19.7021 24.0842 18.9053 23.6012 18.9053 22.8503Z" fill="#9CB4D3"/>
</svg>
