<svg width="26" height="32" viewBox="0 0 26 32" fill="none" xmlns="http://www.w3.org/2000/svg">
<path fill-rule="evenodd" clip-rule="evenodd" d="M1 1V31H25V7.5H18V1H1ZM19.0858 1L24.5858 6.5H19V1H19.0858ZM19.5 0H19H18H1H0V1V31V32H1H25H26V31V6.5L19.5 0ZM13 21C15.7614 21 18 18.7614 18 16C18 13.2386 15.7614 11 13 11C10.2386 11 8 13.2386 8 16C8 18.7614 10.2386 21 13 21ZM13 22C16.3137 22 19 19.3137 19 16C19 12.6863 16.3137 10 13 10C9.68629 10 7 12.6863 7 16C7 19.3137 9.68629 22 13 22ZM6.28223 22.5104L7.94768 20.845C8.17883 21.0859 8.42706 21.3104 8.69041 21.5165L6.98933 23.2175L6.28223 22.5104ZM12.4999 22.9824V25.5H13.4999V22.9824C13.3348 22.994 13.1681 23 13 23C12.8319 23 12.6651 22.994 12.4999 22.9824ZM17.3096 21.5165L19.0105 23.2174L19.7176 22.5103L18.0523 20.845C17.8212 21.086 17.5729 21.3104 17.3096 21.5165Z" fill="#9CB4D3"/>
</svg>
