<svg width="16" height="16" viewBox="0 0 16 16" fill="none" xmlns="http://www.w3.org/2000/svg">
<path fill-rule="evenodd" clip-rule="evenodd" d="M4.81709 1.40292C4.23808 0.831009 3.25038 0.90219 2.74238 1.40269C2.37626 1.7634 2.2535 1.88609 1.8775 2.26796L1.87486 2.27064C1.00012 3.14576 0.770692 4.56803 1.23095 6.28136C1.68837 7.98412 2.80944 9.87616 4.46537 11.5335C6.12083 13.1905 8.01182 14.3121 9.71433 14.7692C11.4272 15.2291 12.8505 14.9988 13.7276 14.1213L13.7341 14.1148C14.0794 13.7819 14.3688 13.4924 14.5945 13.2538C15.1006 12.719 15.1675 11.7801 14.5931 11.1833C14.2325 10.8087 13.4595 10.2047 12.0119 9.16939L11.9898 9.15357L11.9696 9.13544C11.8454 9.02447 11.7322 8.99432 11.6196 8.99954C11.4916 9.00547 11.3277 9.06044 11.1356 9.18641C10.9509 9.3076 10.8135 9.42933 10.5007 9.74238L9.92598 10.3174C9.77823 10.4652 9.6 10.4706 9.55337 10.4712C9.48402 10.472 9.42426 10.4604 9.38672 10.4516C9.30785 10.433 9.22668 10.4022 9.15334 10.3704C9.00143 10.3044 8.8122 10.2029 8.60284 10.0722C8.1819 9.80961 7.64516 9.40799 7.11744 8.8798C6.58953 8.35142 6.18814 7.81441 5.92564 7.39343C5.79508 7.18404 5.69358 6.99488 5.62767 6.84312C5.59585 6.76985 5.56505 6.68883 5.54646 6.61015C5.53762 6.57273 5.52593 6.5131 5.52667 6.4439C5.52716 6.39783 5.53207 6.21896 5.68025 6.07073C5.68028 6.07069 5.68021 6.07077 5.68025 6.07073L6.25525 5.49547C6.25527 5.49544 6.25522 5.49549 6.25525 5.49547C6.35488 5.39575 6.39948 5.35049 6.45671 5.29035C6.57614 5.16485 6.66779 5.05849 6.74399 4.95581C6.91074 4.73112 6.98791 4.54643 7.00312 4.40527C7.01577 4.28783 6.99076 4.16811 6.86271 4.02619L6.84368 4.0051L6.82717 3.98199C5.83633 2.59568 5.19738 1.77854 4.81709 1.40292ZM2.04055 0.690348C2.90253 -0.15891 4.51699 -0.299073 5.51982 0.691461C5.96924 1.13537 6.65202 2.01793 7.6255 3.37921C7.92203 3.71911 8.04069 4.11029 7.99737 4.51238C7.95563 4.89982 7.76885 5.25284 7.54702 5.55176C7.43896 5.69736 7.31823 5.83564 7.18114 5.9797C7.11527 6.04893 7.06379 6.10105 6.96267 6.20226L6.60167 6.56342C6.644 6.64579 6.70122 6.74729 6.7742 6.86432C6.99961 7.22583 7.35453 7.70226 7.82486 8.173C8.29484 8.6434 8.77086 8.9984 9.13217 9.22382C9.24909 9.29677 9.35051 9.35396 9.43281 9.39626L9.79332 9.03559C9.79334 9.03556 9.79329 9.03561 9.79332 9.03559C10.1134 8.71519 10.3113 8.5312 10.5871 8.35026C10.8739 8.16215 11.2104 8.01742 11.5733 8.00061C11.9429 7.98349 12.3027 8.10147 12.614 8.37053C14.0304 9.38403 14.8789 10.0383 15.3135 10.4899C16.2944 11.5089 16.1573 13.0572 15.3209 13.9411C15.0818 14.1938 14.7819 14.4937 14.4314 14.8317C13.1999 16.0607 11.3454 16.2426 9.45501 15.735C7.55258 15.2242 5.51313 13.9971 3.75795 12.2403C2.00247 10.4833 0.776202 8.44304 0.265192 6.5408C-0.242787 4.64983 -0.0620484 2.7951 1.16621 1.56506C1.54476 1.1806 1.67124 1.0542 2.04055 0.690348Z" fill="#6D6F81"/>
</svg>
