<svg width="48" height="48" viewBox="0 0 48 48" fill="none" xmlns="http://www.w3.org/2000/svg">
<path fill-rule="evenodd" clip-rule="evenodd" d="M24.5 7H40.7C44.7 7 48 10.2 48 14.4C48 18.5 44.7 21.8 40.7 21.8H39.1L42.5 33.7H44.9C46 33.7 46.9 34.6 46.9 35.7V39.6C46.9 40.7 46 41.6 44.9 41.6H30.7C29.6 41.6 28.7 40.7 28.7 39.6V35.7C28.7 34.6 29.6 33.7 30.7 33.7H32.4L29 21.8H24.5C23.6 21.8 22.9 21.2 22.6 20.4H18C16.9 20.4 16 19.5 16 18.4H14.3C12.5 18.4 10.9 17.1 10.5 15.4H1C0.4 15.4 0 15 0 14.4C0 13.8 0.4 13.4 1 13.4H10.5C10.9 11.7 12.5 10.4 14.3 10.4H16C16 9.3 16.9 8.4 18 8.4H22.6C22.9 7.6 23.6 7 24.5 7ZM14.3 16.3H16V12.4H14.3C13.3 12.4 12.4 13.2 12.4 14.3C12.4 15.4 13.2 16.3 14.3 16.3ZM18 18.3H22.5V10.4H18V11.4V18.3ZM44.8 39.5V35.6H30.7V39.5H44.8ZM34.5 33.6H40.4L37 21.7H31.1L34.5 33.6ZM24.5 19.6H40.7C43.6 19.6 46 17.3 46 14.4C46 11.4 43.6 9 40.7 9H24.5V9.3V19.2V19.6ZM39.2998 15.5H41.1998C41.6998 15.5 42.1998 15.9 42.1998 16.5C42.1998 17.1 41.7998 17.5 41.1998 17.5H39.2998C38.6998 17.5 38.2998 17.1 38.2998 16.5C38.2998 15.9 38.6998 15.5 39.2998 15.5Z" fill="#004192"/>
</svg>
