<svg width="24" height="24" viewBox="0 0 24 24" fill="none" xmlns="http://www.w3.org/2000/svg">
<path fill-rule="evenodd" clip-rule="evenodd" d="M10.2932 18.5864C5.713 18.5864 2 14.8734 2 10.2932C2 5.713 5.713 2 10.2932 2C14.8734 2 18.5864 5.713 18.5864 10.2932C18.5864 12.2097 17.9364 13.9743 16.8447 15.3787L21.6964 20.2303C22.1012 20.6352 22.1012 21.2915 21.6964 21.6964C21.2915 22.1012 20.6352 22.1012 20.2303 21.6964L15.3787 16.8447C13.9743 17.9364 12.2097 18.5864 10.2932 18.5864ZM16.5131 10.2932C16.5131 13.7284 13.7284 16.5131 10.2932 16.5131C6.85805 16.5131 4.0733 13.7284 4.0733 10.2932C4.0733 6.85805 6.85805 4.0733 10.2932 4.0733C13.7284 4.0733 16.5131 6.85805 16.5131 10.2932Z" fill="#0051B4"/>
</svg>
