<svg width="80" height="80" viewBox="0 0 80 80" fill="none" xmlns="http://www.w3.org/2000/svg">
<path fill-rule="evenodd" clip-rule="evenodd" d="M40.6654 0.234322L40.0005 0L39.3357 0.234322L1.33572 13.6277C0.293962 13.9948 -0.252896 15.137 0.114277 16.1787C0.481451 17.2205 1.62361 17.7674 2.66537 17.4002L6.00049 16.2247V76.0316H2.00049C0.89592 76.0316 0.000488371 76.92 0.000488371 78.0158C0.000488371 79.1115 0.89592 80 2.00049 80H53.0005V76.0316V65.1185H42.0005V54.2054H31.0005V43.2923H20.0005V31.3871H60.0005V80H78.0005C79.1051 80 80.0005 79.1115 80.0005 78.0158C80.0005 76.92 79.1051 76.0316 78.0005 76.0316H74.0005V16.2247L77.3357 17.4002C78.3775 17.7674 79.5196 17.2205 79.8868 16.1787C80.254 15.137 79.7071 13.9948 78.6654 13.6277L40.6654 0.234322ZM70.0005 14.8148L40.0005 4.24118L10.0005 14.8149V76.0316H16.0005V27.4187H64.0005V76.0316H70.0005V14.8148ZM20.0005 47.2607V54.2054H27.0005V47.2607H20.0005ZM31.0005 58.1738H38.0005V65.1185H31.0005V58.1738ZM20.0005 58.1738H27.0005V65.1185H20.0005V58.1738ZM20.0005 69.0869V76.0316H27.0005V69.0869H20.0005ZM31.0005 69.0869V76.0316H38.0005V69.0869H31.0005ZM42.0005 69.0869V76.0316H49.0005V69.0869H42.0005Z" fill="#004192"/>
</svg>
