<svg width="175" height="65" viewBox="0 0 175 65" fill="none" xmlns="http://www.w3.org/2000/svg">
<path fill-rule="evenodd" clip-rule="evenodd" d="M165.637 14.8094C167.075 14.8094 168.334 15.1471 169.407 15.8131C169.1 15.2019 168.663 14.7895 168.098 14.5764C167.532 14.3693 166.574 14.2668 165.214 14.2668L164.085 14.2885V35.2855L166.895 38.3673H156.851L157.337 38.9104H168.048L164.713 35.1204L164.628 14.8714C164.978 14.8316 165.314 14.8094 165.637 14.8094ZM171.961 18.5589C173.025 15.8131 174.042 13.8538 175 12.6775L174.586 12.2727L174.48 12.3957C173.512 13.4819 172.519 15.415 171.481 18.193L171.416 18.3718L171.883 18.7582L171.961 18.5589ZM173.532 11.6765C173.573 11.6021 173.622 11.5116 173.678 11.4059H148.447L148.575 11.6052C149.828 13.902 150.757 15.9858 151.357 17.8491H151.608C151.695 16.1712 152.138 14.9826 152.93 14.2802C153.726 13.5726 155.027 13.22 156.831 13.22C157.475 13.22 158.148 13.2626 158.863 13.3452V14.3289H158.633L157.375 14.3089C155.778 14.3089 154.643 14.6184 153.947 15.2357C153.253 15.8474 152.832 16.9496 152.682 18.5168H153.225C153.338 17.1489 153.697 16.1934 154.306 15.6481C154.913 15.105 155.936 14.8315 157.375 14.8315L158.863 14.8515V34.9012L155.928 37.2589H165.508L163.032 35.0639V13.22H163.283C163.913 13.1663 164.543 13.1375 165.171 13.1375C166.711 13.1375 167.847 13.4336 168.597 14.025C169.343 14.6184 169.923 15.6764 170.331 17.2092L170.387 17.4706L170.603 17.61L170.638 17.5131C171.06 16.2194 171.518 15.1471 172.004 14.2885L173.427 11.8664C173.45 11.8256 173.486 11.7618 173.532 11.6765ZM148.79 38.9103L149.876 37.094L149.541 36.7778C147.708 35.0518 146.414 33.3322 145.641 31.6122L144.977 31.3709C145.799 33.4004 147.216 35.3136 149.225 37.094L148.518 38.3673H125.567L125.903 38.9103H148.79ZM141.198 28.4285V19.5206L140.678 19.2593V28.1667L141.198 28.4285ZM147.216 12.9952L147.365 12.8159L147.072 12.3896C145.585 14.1213 144.383 16.0345 143.446 18.11L143.795 18.5385C144.375 17.0465 145.514 15.1957 147.216 12.9952ZM146.021 11.7901L146.356 11.4059H123.993L127.178 13.8196V22.4291C124.889 22.4291 123.423 23.5037 122.778 25.65C123.951 24.6463 125.246 24.1431 126.678 24.1431C126.736 24.1431 126.825 24.1488 126.943 24.1595C127.012 24.1658 127.091 24.1739 127.178 24.1835V25.1268C125.712 25.2973 124.552 25.6843 123.701 26.2756L123.993 26.6941C124.945 26.1311 126.005 25.7867 127.178 25.65V34.6372L123.993 36.9772H147.488C146.243 35.7941 145.356 34.7622 144.818 33.8754C144.275 32.988 143.824 31.8055 143.466 30.3268C143.399 30.4379 143.343 30.5322 143.3 30.6075C143.26 30.6766 143.23 30.7298 143.209 30.7653L142.101 32.602C141.414 33.7447 140.476 34.5087 139.273 34.9012C138.073 35.2915 136.042 35.4847 133.194 35.4847V25.65H137.765L137.221 25.1268H132.672V35.4847H131.327V24.1835H137.049L139.753 27.5411V18.8606L137.049 22.4291H133.194V14.769L133.637 14.7469C134.781 14.6931 135.577 14.6649 136.026 14.6649C137.508 14.6649 138.495 14.7469 139.004 14.9063C139.504 15.0712 140.32 15.58 141.45 16.4408C141.492 16.4742 141.546 16.5155 141.614 16.5642C141.686 16.6157 141.772 16.6754 141.872 16.7426C141.213 15.6968 140.469 14.9888 139.625 14.6245C138.788 14.2602 137.487 14.0813 135.712 14.0813C134.745 14.0813 133.731 14.1296 132.672 14.2259V22.4291H131.327V13.1601C132.793 13.0915 134.053 13.0556 135.098 13.0556C137.379 13.0556 138.959 13.2908 139.839 13.7636C140.719 14.232 141.542 15.2705 142.308 16.8871C142.379 17.0326 142.487 17.2574 142.624 17.5675C143.466 15.3951 144.597 13.4702 146.021 11.7901ZM120.933 31.0687C120.933 28.7994 120.188 27.1082 118.694 25.9938L118.436 26.1732C119.723 27.5953 120.367 29.1842 120.367 30.9325C120.367 34.0603 118.958 36.2548 116.133 37.5203C114.859 38.0838 112.785 38.3673 109.908 38.3673H96.6808L97.0387 38.9104H111.289C114.436 38.9104 116.819 38.188 118.436 36.7353C120.102 35.2434 120.933 33.3523 120.933 31.0687ZM102.991 35.6834V24.5838C103.97 24.5218 104.636 24.4935 104.979 24.4935C108.548 24.4935 110.982 24.8854 112.277 25.67C113.579 26.4605 114.229 27.9192 114.229 30.0578C114.229 33.4768 112.262 35.3136 108.32 35.5811L105.28 35.6834H104.609V26.2756L106.324 26.2335C108.329 26.2335 109.837 26.4123 110.875 26.7705C111.911 27.122 112.771 27.7681 113.448 28.6893H113.7C113.093 27.5206 112.262 26.73 111.218 26.3154C110.18 25.8969 108.5 25.6898 106.182 25.6898C105.745 25.6898 105.037 25.7248 104.044 25.7867V35.6834H102.991ZM102.991 22.9262V13.84C104.458 12.9952 105.967 12.5689 107.519 12.5689C109.278 12.5689 110.703 13.0433 111.79 13.9906C112.871 14.9339 113.413 16.1789 113.413 17.7263C113.413 19.4861 112.762 20.7937 111.455 21.6473C110.144 22.4999 108.157 22.9262 105.487 22.9262H104.609V15.1957C105.473 14.6045 106.454 14.3088 107.54 14.3088C109.488 14.3088 110.982 15.0645 112.026 16.5841L112.614 16.9075C112.085 15.8014 111.44 15.0224 110.674 14.5695C109.915 14.1096 108.879 13.882 107.563 13.882C106.418 13.882 105.245 14.15 104.044 14.687V22.9262H103.686L103.305 22.9062C103.248 22.9062 103.148 22.9124 102.991 22.9262ZM27.3641 37.0835L27.6759 37.6227H34.9654C40.0223 37.6227 43.6607 36.6617 45.8933 34.7462C48.8018 32.2584 50.2561 28.3776 50.2561 23.1217C50.2561 18.1166 48.7874 14.7291 45.8515 12.9571C45.9277 13.0409 45.9852 13.1069 46.0264 13.1542C46.0623 13.1954 46.0858 13.2223 46.0984 13.2344L46.9357 14.1158C48.8018 16.0987 49.737 19.1324 49.737 23.2241C49.737 29.3326 47.6529 33.4569 43.483 35.5849C41.5456 36.5869 38.7024 37.0835 34.9654 37.0835H27.3641ZM33.3004 34.4466V12.0352H34.2774C37.1355 12.0352 39.2212 12.5324 40.5394 13.5366C42.7179 15.1858 43.8014 18.2676 43.8014 22.7795C43.8014 27.4016 42.795 30.6888 40.7885 32.6463C40.0649 33.3543 39.3069 33.8333 38.4977 34.0785C37.6964 34.3238 36.518 34.4466 34.9657 34.4466V13.8162C35.5473 13.7614 36.016 13.7331 36.378 13.7331C38.0578 13.7331 39.6251 14.0676 41.0938 14.7291C40.4329 14.15 39.7676 13.7475 39.1147 13.5217C38.4558 13.3024 37.5538 13.1939 36.4199 13.1939C35.8237 13.1939 35.1729 13.2487 34.4487 13.3512V34.4466H33.3004ZM35.1934 10.358H27.0085L29.2282 12.6554V33.8876L26.3844 35.9874H35.2143C37.5411 35.9874 39.4116 35.7881 40.8155 35.3858C42.2193 34.992 43.4894 34.3018 44.6318 33.3279C47.1344 31.1745 48.3899 27.6758 48.3899 22.8417C48.3899 18.1854 46.9586 14.763 44.0855 12.5746C42.1626 11.0942 39.2 10.358 35.1934 10.358ZM5.61401 22.9784L4.90493 22.6024C5.09719 23.441 5.70616 24.1032 6.73568 24.5877C7.75665 25.0703 9.76955 25.65 12.7551 26.3177C14.8185 26.7821 16.2158 27.179 16.946 27.4924C17.67 27.8123 18.344 28.3228 18.9674 29.0109L19.1158 28.9307C18.7977 28.1317 18.2582 27.5388 17.5068 27.1442C16.7473 26.7561 15.2367 26.2855 12.9689 25.7402L9.62115 24.9358C7.40944 24.4166 6.06832 23.7634 5.61401 22.9784ZM11.6131 34.1671C9.38702 33.1711 8.01257 31.4738 7.50201 29.0735L6.94132 29.1764C7.47908 31.8901 9.03981 33.6074 11.6131 34.3299V34.1671ZM25.1231 28.9511C25.1231 26.5712 24.1791 24.6907 22.2943 23.3188V23.4412C23.7903 24.9685 24.5413 26.7561 24.5413 28.794C24.5413 31.1994 23.5707 33.2516 21.6204 34.95C19.6767 36.6468 17.3144 37.5005 14.5507 37.5005C13.1318 37.5005 11.7904 37.3576 10.5147 37.0636L7.31531 36.3274C6.2462 36.0887 5.30241 35.9653 4.46572 35.9653C3.7206 35.9653 2.98417 36.1225 2.2664 36.4441L2.51548 37.0238C3.18284 36.7154 3.90489 36.5671 4.69971 36.5671C5.58468 36.5671 6.41538 36.6617 7.18998 36.8466L10.5147 37.6227C11.7198 37.9162 13.0756 38.0596 14.5715 38.0596C17.5068 38.0596 19.9948 37.1804 22.0452 35.4145C24.0957 33.6479 25.1231 31.4939 25.1231 28.9511ZM12.6136 13.0511C14.3582 13.0511 15.9903 13.8278 17.5135 15.3906L17.6619 15.3148C17.2435 14.4357 16.5928 13.7532 15.6993 13.2626C14.8038 12.7776 13.762 12.5324 12.5713 12.5324C11.3222 12.5324 10.3099 12.8602 9.53528 13.5145C8.76339 14.1699 8.37402 15.0147 8.37402 16.0506C8.37402 17.5452 9.2889 18.684 11.1175 19.4663L11.2242 19.309L11.0543 19.2089C9.6569 18.1647 8.95365 17.155 8.95365 16.1673C8.95365 15.2601 9.30328 14.5182 9.99813 13.9302C10.6843 13.3452 11.5567 13.0511 12.6136 13.0511ZM23.3929 11.7153L23.5853 11.4158L23.0452 11.1562L22.9387 11.3194L21.5284 13.9502C20.7623 15.3624 20.1807 16.5073 19.7833 17.3886L19.6975 17.5713L20.1935 17.7684L20.3002 17.6255C20.4216 17.4002 20.9739 16.3097 21.9385 14.3527C22.3425 13.5145 22.8256 12.6354 23.3929 11.7153ZM61.4212 22.5062L60.3521 21.9404C60.6406 23.2059 61.5588 24.2013 63.1094 24.9315C64.6495 25.6623 67.6853 26.5353 72.1858 27.5428C75.2973 28.2409 77.4023 28.8361 78.5046 29.3104C79.5947 29.7938 80.6097 30.5644 81.5513 31.6023L81.7752 31.4795C81.2937 30.276 80.4822 29.3814 79.3477 28.7862C78.2037 28.2005 75.9272 27.4903 72.5061 26.6681L67.4614 25.4568C64.1261 24.6741 62.1052 23.6887 61.4212 22.5062ZM70.4634 39.371C67.1075 37.8702 65.0343 35.3115 64.2639 31.6948L63.4187 31.8493C64.2329 35.9392 66.5843 38.5307 70.4634 39.6179V39.371ZM71.9726 7.54165C74.6024 7.54165 77.061 8.71419 79.3584 11.068L79.5844 10.9535C78.9524 9.62762 77.9688 8.60017 76.6219 7.86167C75.2763 7.13091 73.7027 6.76055 71.9078 6.76055C70.0266 6.76055 68.4974 7.25381 67.3318 8.24141C66.1662 9.22737 65.5803 10.5029 65.5803 12.0634C65.5803 14.3145 66.959 16.0305 69.717 17.2131L69.8761 16.9762L69.6206 16.8227C67.514 15.25 66.455 13.7293 66.455 12.2385C66.455 10.8732 66.9804 9.75221 68.0266 8.86699C69.064 7.98398 70.378 7.54165 71.9726 7.54165ZM75.5353 48.2259V45.2304C79.6951 45.1142 83.2435 43.791 86.1895 41.2522C89.2796 38.5904 90.8281 35.3437 90.8281 31.5099C90.8281 27.9232 89.4077 25.0866 86.5639 23.021V23.2059C88.8195 25.5072 89.9512 28.2005 89.9512 31.2725C89.9512 34.9013 88.4869 37.9954 85.5472 40.5536C82.6201 43.1123 79.0586 44.3978 74.8908 44.3978C72.7526 44.3978 70.7312 44.1808 68.8087 43.7401L63.9858 42.6301C62.3725 42.2697 60.9499 42.0848 59.688 42.0848C58.5669 42.0848 57.4533 42.3218 56.3761 42.8045L56.7484 43.6776C57.7548 43.2152 58.8447 42.99 60.0415 42.99C61.3789 42.99 62.628 43.1327 63.793 43.4101L68.8087 44.5832C70.4156 44.9729 72.1982 45.186 74.148 45.2304V48.2259H75.5353ZM87.7837 6.25017H88.1961H174.193C174.243 6.25017 174.286 6.21642 174.286 6.17155V5.16178C174.286 5.1197 174.243 5.08316 174.193 5.08316H88.5036L88.51 5.07542L87.6958 4.68515L87.5367 4.93095L85.4092 8.89968C84.2545 11.0261 83.3776 12.7538 82.7794 14.0792L82.6512 14.3565L83.3984 14.6544L83.5596 14.439C83.7418 14.0991 84.5742 12.4538 86.0284 9.50479C86.5324 8.46293 87.1142 7.37674 87.7837 6.25017ZM83.9652 8.2099C84.608 6.67863 85.4843 5.21824 86.564 3.81208L86.2208 3.66706C85.0134 4.34521 83.8923 4.68511 82.8649 4.68511C82.1386 4.68511 81.0154 4.48968 79.4857 4.08778C76.8161 3.39745 74.4266 2.9911 72.3029 2.86655V0H70.9154V2.82447C67.1308 2.82836 64.0466 3.81432 61.6886 5.78348C59.3137 7.76647 58.1273 10.3379 58.1273 13.5145C58.1273 16.5753 59.0164 18.9818 60.7889 20.7074C62.5649 22.4336 65.4296 23.668 69.3735 24.4066C74.4828 25.3721 77.8622 26.4123 79.5195 27.5427C81.8168 29.1239 82.9608 31.1295 82.9608 33.5532C82.9608 35.6613 82.1386 37.3371 80.4922 38.5798C78.8349 39.8238 76.6109 40.451 73.8219 40.451C70.2712 40.451 67.3965 39.578 65.2057 37.8297C63.0128 36.082 61.6989 33.6362 61.2597 30.4918L60.6946 30.3373C59.7551 33.4048 58.1798 36.6229 55.966 39.9849H55.4995V39.9782H1.01742V41.4791H55.4995C56.8552 40.6969 58.1711 40.3065 59.4433 40.3065C60.4058 40.3065 61.624 40.4814 63.1092 40.8214L66.7665 41.6939C69.7167 42.3925 72.3783 42.7418 74.7507 42.7418C78.5569 42.7418 81.7434 41.6225 84.3192 39.381C86.8946 37.1521 88.1897 34.3863 88.1897 31.0875C88.1897 25.1889 84.4258 21.3651 76.8895 19.6191L71.598 18.3844C66.3166 17.161 63.6765 14.8598 63.6765 11.4883C63.6765 9.67971 64.4146 8.18943 65.9003 6.98643C67.3857 5.79507 69.2352 5.19829 71.4699 5.19829C73.8952 5.19829 76.0544 6.01046 77.9586 7.63469C78.7074 8.28188 79.2747 8.9495 79.6469 9.64981C80.0213 10.3579 80.5028 11.6129 81.0803 13.4215C81.1125 13.5084 81.1582 13.6318 81.2166 13.7822C81.2341 13.8272 81.2528 13.8746 81.2726 13.9241L81.4338 13.7492C81.85 13.0617 82.6931 11.2204 83.9652 8.2099ZM20.5705 13.494C20.9952 12.4782 21.5768 11.5105 22.2946 10.5771L22.0664 10.4807C21.265 10.9314 20.5201 11.1562 19.8403 11.1562C19.3587 11.1562 18.6143 11.0261 17.5991 10.7603C15.4358 10.2006 13.551 9.92108 11.9247 9.92108C9.40782 9.92108 7.35946 10.5771 5.79218 11.8847C4.21692 13.2022 3.43007 14.9063 3.43007 17.0127C3.43007 19.0438 4.02039 20.6393 5.19602 21.7858C6.37394 22.9301 8.27376 23.7489 10.8915 24.2399C14.281 24.8793 16.5215 25.5697 17.6201 26.3176C19.1456 27.3695 19.903 28.6975 19.903 30.3068C19.903 31.7052 19.3587 32.8147 18.2666 33.6423C17.1665 34.4666 15.6913 34.8812 13.8418 34.8812C11.4855 34.8812 9.57914 34.3016 8.12551 33.1429C6.67116 31.9843 5.79873 30.3611 5.50777 28.2751L5.13336 28.1721C4.44507 30.4236 3.23995 32.7948 1.51573 35.2853L1.68719 35.5627C2.58698 35.0463 3.45955 34.7866 4.30265 34.7866C4.94053 34.7866 5.74831 34.9033 6.73596 35.1281L9.16087 35.7078C11.1175 36.1706 12.8829 36.4019 14.4589 36.4019C16.9822 36.4019 19.0953 35.659 20.8049 34.1731C22.5142 32.6928 23.3718 30.8599 23.3718 28.6709C23.3718 24.7569 20.8758 22.2226 15.875 21.0633L12.3665 20.2445C8.86194 19.4342 7.11037 17.9051 7.11037 15.6702C7.11037 14.4694 7.6 13.4819 8.58551 12.683C9.57117 11.8925 10.7994 11.4966 12.2803 11.4966C13.8893 11.4966 15.3228 12.0353 16.5847 13.1136C17.0803 13.5422 17.4573 13.9851 17.7058 14.4495C17.9549 14.9201 18.273 15.7504 18.656 16.9518C18.685 17.0259 18.7272 17.1427 18.7834 17.2856L18.8901 17.1688C19.1664 16.7126 19.7272 15.4909 20.5705 13.494ZM107.625 10.9796C103.491 10.9796 99.7561 12.0313 96.4313 14.1434L98.7978 15.3524V22.9263C98.5631 22.8925 98.2326 22.8703 97.8121 22.8703C97.532 22.8703 97.124 22.8493 96.5739 22.8094L96.245 22.7873L95.3226 24.7199C96.5085 24.6181 97.4899 24.5638 98.2766 24.5638H98.7978V25.6278C98.0046 25.6278 96.9814 25.6898 95.7367 25.8066L95.9081 26.3917C97.0109 26.2334 97.9756 26.1509 98.7978 26.1509V34.879L95.9081 37.2589H110.917C113.427 37.2589 115.446 36.6616 116.955 35.4564C118.463 34.2534 119.215 32.6508 119.215 30.6484C119.215 29.2527 118.836 27.9955 118.07 26.8811C117.313 25.7667 116.246 24.9054 114.879 24.3019C118.034 23.1455 119.616 21.1038 119.616 18.1725C119.616 16.0544 118.7 14.3145 116.868 12.9608L116.639 12.7738V12.8983C118.277 14.377 119.093 16.0687 119.093 17.9737C119.093 19.4945 118.65 20.7883 117.762 21.86C116.875 22.9323 115.654 23.6482 114.101 23.9986C113.823 23.9181 113.568 23.849 113.337 23.7892C113.174 23.7472 113.023 23.7097 112.883 23.6763V23.4549C116.183 22.5277 117.833 20.6914 117.833 17.9538C117.833 15.8972 116.884 14.2182 114.98 12.9244C113.084 11.6256 110.632 10.9796 107.625 10.9796ZM172.89 62.9622H171.004V61.1748H172.89V62.9622ZM170.925 55.8186L171.415 60.5572H172.482L172.965 55.8186V53.6274H170.925V55.8186ZM164.509 55.2079V62.9622H166.497V55.2079H169.408V53.6274H161.591V55.2079H164.509ZM153.13 53.6274V62.9622H160.611V61.3892H155.115V58.8487H160.053V57.2763H155.115V55.2079H160.421V53.6274H153.13ZM145.21 61.3949C145.75 60.097 146.021 58.0276 146.021 55.193H148.948V61.3949H145.21ZM150.927 53.6274H144.129V54.6128C144.129 56.2268 144.066 57.5617 143.934 58.6168C143.808 59.6727 143.537 60.5964 143.13 61.3949H142.298V65H143.948V62.9622H150.142V65H151.794V61.3949H150.927V53.6274ZM136.71 53.6274H134.489L138.105 60.3259C137.922 60.8535 137.732 61.1966 137.533 61.3535C137.334 61.5121 137.004 61.5939 136.541 61.5939C136.315 61.5939 136.06 61.5853 135.778 61.568V62.9703C136.108 63.04 136.565 63.0793 137.152 63.0793C137.748 63.0793 138.234 62.8757 138.609 62.4756C138.984 62.0737 139.355 61.49 139.715 60.722L143.037 53.6274H140.965L139.005 58.4745L136.71 53.6274ZM129.911 61.3949H127.977V58.9271H129.998C130.781 58.9271 131.335 59.0251 131.657 59.2229C131.984 59.4207 132.146 59.7337 132.146 60.1662C132.146 60.4649 132.052 60.714 131.866 60.9205C131.681 61.1217 131.462 61.2525 131.212 61.3114C130.961 61.3674 130.529 61.3949 129.911 61.3949ZM133.346 53.6274H125.991V62.9622H130.635C131.45 62.9622 132.077 62.8803 132.516 62.716C132.958 62.5482 133.351 62.2414 133.694 61.7923C134.039 61.342 134.211 60.8005 134.211 60.1662C134.211 59.5521 134.039 59.0159 133.698 58.558C133.355 58.0973 132.943 57.7825 132.459 57.6147C131.977 57.4446 131.368 57.3604 130.635 57.3604H127.977V55.193H133.346V53.6274ZM112.967 53.6274V62.9622H120.448V61.3892H114.953V58.8487H119.893V57.2763H114.953V55.2079H120.261V53.6274H112.967ZM103.047 53.6274V62.9622H105.034V58.8799H108.927V62.9622H110.914V53.6274H108.927V57.3021H105.034V53.6274H103.047ZM93.1563 55.8054L94.5112 59.2708H91.8271L93.1563 55.8054ZM96.0078 62.9622H98.1693L94.2301 53.6274H92.1302L88.2988 62.9622H90.4047L91.2152 60.8426H95.1483L96.0078 62.9622ZM83.9835 55.2079V62.9622H85.9709V55.2079H88.8819V53.6274H81.0644V55.2079H83.9835ZM72.6031 53.6274V62.9622H80.084V61.3892H74.5895V58.8487H79.5262V57.2763H74.5895V55.2079H79.8966V53.6274H72.6031ZM64.6711 61.3892V58.8931H66.2747C67.1759 58.8931 67.7646 58.938 68.0348 59.0279C68.3048 59.1168 68.5115 59.2593 68.6562 59.4541C68.7991 59.6502 68.8729 59.8877 68.8729 60.1662C68.8729 60.4989 68.7778 60.7636 68.5927 60.9597C68.4074 61.158 68.1661 61.2836 67.8709 61.3338C67.6782 61.3731 67.2243 61.3892 66.5085 61.3892H64.6711ZM64.6711 57.3408V55.1826H65.8114C66.7455 55.1826 67.3109 55.193 67.5079 55.2132C67.8383 55.2518 68.0892 55.3585 68.2574 55.5401C68.4245 55.7212 68.5078 55.9564 68.5078 56.2435C68.5078 56.548 68.4111 56.7908 68.2168 56.9753C68.0214 57.1592 67.7528 57.2717 67.415 57.3068C67.2266 57.3299 66.7455 57.3408 65.9721 57.3408H64.6711ZM66.6162 53.6274H62.6824V62.9622H66.0317C67.2974 62.953 68.0965 62.9311 68.4265 62.9006C68.9554 62.8445 69.4011 62.697 69.7605 62.4564C70.1191 62.2167 70.4047 61.8943 70.6134 61.4958C70.82 61.0934 70.9241 60.6805 70.9241 60.2556C70.9241 59.7176 70.7641 59.2483 70.4399 58.8487C70.1191 58.4496 69.6573 58.1677 69.0601 58.0022C69.4823 57.8211 69.8203 57.5472 70.0695 57.1823C70.3162 56.8161 70.4399 56.4136 70.4399 55.9783C70.4399 55.5764 70.3391 55.2107 70.1384 54.8868C69.9361 54.5604 69.6867 54.2997 69.384 54.1049C69.0824 53.9095 68.7413 53.7808 68.3592 53.7226C67.9768 53.6579 67.3941 53.6274 66.6162 53.6274ZM60.9704 60.108L59.0467 59.5302C58.8806 60.2141 58.6083 60.714 58.2282 61.0317C57.8477 61.3535 57.3944 61.5092 56.8637 61.5092C56.1495 61.5092 55.5688 61.2618 55.1209 60.759C54.673 60.2585 54.4509 59.4184 54.4509 58.2374C54.4509 57.1264 54.6768 56.3219 55.1298 55.8244C55.5837 55.3278 56.1763 55.0787 56.906 55.0787C57.4328 55.0787 57.8807 55.219 58.2496 55.4979C58.6217 55.7805 58.863 56.1628 58.9789 56.646L60.9454 56.2014C60.7223 55.4536 60.3881 54.8776 59.9381 54.4814C59.1875 53.8056 58.2091 53.4678 57.0063 53.4678C55.6286 53.4678 54.5166 53.8979 53.6715 54.7575C52.826 55.6179 52.4037 56.8242 52.4037 58.3792C52.4037 59.8457 52.8239 61.004 53.6651 61.8534C54.5053 62.697 55.58 63.1202 56.8851 63.1202C57.9405 63.1202 58.8128 62.8729 59.4983 62.381C60.1853 61.884 60.6759 61.1269 60.9704 60.108ZM42.8669 55.8054L44.2234 59.2708H41.5387L42.8669 55.8054ZM45.719 62.9622H47.8805L43.942 53.6274H41.8396L38.0085 62.9622H40.1161L40.9269 60.8426H44.8601L45.719 62.9622ZM30.9894 53.6274H29.003V62.9622H35.9961V65H37.6478V61.3949H36.8273V53.6274H34.8415V61.3949H30.9894V53.6274ZM19.0502 53.6274V62.9622H21.0377V58.8799H24.9308V62.9622H26.9171V53.6274H24.9308V57.3021H21.0377V53.6274H19.0502ZM10.77 60.6945C10.2565 60.1472 9.99756 59.3458 9.99756 58.2899C9.99756 57.2128 10.2506 56.4114 10.7487 55.8803C11.251 55.3469 11.9108 55.0787 12.7312 55.0787C13.5491 55.0787 14.2051 55.3412 14.6994 55.8693C15.1933 56.3969 15.4404 57.1926 15.4404 58.2623C15.4404 59.3458 15.1858 60.1559 14.6803 60.6974C14.171 61.2417 13.5202 61.5092 12.7312 61.5092C11.9374 61.5092 11.2851 61.2388 10.77 60.6945ZM8.40179 55.9587C8.10059 56.604 7.95219 57.3996 7.95219 58.3516C7.95219 59.8376 8.38257 61.004 9.24674 61.8534C10.1099 62.697 11.2732 63.1202 12.7363 63.1202C14.1797 63.1202 15.3344 62.697 16.1987 61.8442C17.0615 60.9937 17.4939 59.8145 17.4939 58.3072C17.4939 56.7878 17.0598 55.6012 16.1898 54.7495C15.3191 53.895 14.1584 53.4678 12.7097 53.4678C11.9083 53.4678 11.2021 53.5905 10.5883 53.8396C10.1292 54.0206 9.70418 54.2997 9.31667 54.6775C8.93015 55.0569 8.62539 55.4841 8.40179 55.9587ZM1.98641 53.6274H0V62.9622H1.98641V58.8741C2.32166 58.8799 2.57088 58.938 2.7348 59.0528C2.89701 59.1669 3.10736 59.4541 3.362 59.9125C3.45229 60.0783 3.51965 60.1973 3.56181 60.2705C3.58573 60.312 3.60168 60.3387 3.60923 60.3508C3.66947 60.4488 3.70579 60.5162 3.72288 60.5492L4.89838 62.9622H7.23385L5.89073 60.4021C5.54751 59.7453 5.23035 59.2345 4.94267 58.8741C4.65328 58.5136 4.28656 58.2732 3.84465 58.1562C4.02879 58.0565 4.18473 57.9543 4.31191 57.8492C4.43125 57.7503 4.52525 57.6489 4.59361 57.5444C4.73446 57.3276 4.86363 57.0559 4.98539 56.7354C5.21539 56.1264 5.38686 55.7274 5.50478 55.5314C5.61843 55.3359 5.7711 55.1907 5.96008 55.0961C6.14693 54.9981 6.44429 54.9507 6.84947 54.9507L7.13188 54.9588V53.5657C6.98505 53.5686 6.89006 53.5715 6.8442 53.5715C5.92704 53.5715 5.26296 53.6915 4.84981 53.94C4.43553 54.1851 4.02238 54.8136 3.60923 55.8244C3.28467 56.6177 3.04171 57.1033 2.88534 57.2763C2.72896 57.4497 2.43003 57.5588 1.98641 57.6009V53.6274Z" fill="#004192"/>
</svg>
