<svg width="80" height="80" viewBox="0 0 80 80" fill="none" xmlns="http://www.w3.org/2000/svg">
<path fill-rule="evenodd" clip-rule="evenodd" d="M58.8197 4L56.1888 76H70.8112L68.1803 4H58.8197ZM53.3384 49L52.1846 76H52H9V49.1121L21.5 40.5754V44.9893C21.5 49.1194 26.2238 51.4685 29.5172 48.9763L40 41.0432V44C40 46.7615 42.2385 49 45 49H53.3384ZM5 76V48.0562C5 47.3953 5.32642 46.7771 5.87207 46.4045L25.5 33V44.9893C25.5 45.8152 26.4447 46.2852 27.1034 45.7866L44 33V44C44 44.5522 44.4478 45 45 45H53.5231L55 0H72L74.8154 76H78C79.1046 76 80 76.8955 80 78C80 79.1045 79.1046 80 78 80H75H70.9957H56.0043H52H5H2C0.895386 80 0 79.1045 0 78C0 76.8955 0.895386 76 2 76H5ZM13 55H17V59H13V55ZM17 64H13V68H17V64ZM22 55H26V59H22V55ZM26 64H22V68H26V64ZM31 55H35V59H31V55ZM35 64H31V68H35V64Z" fill="#004192"/>
</svg>
