<svg width="24" height="24" viewBox="0 0 24 24" fill="none" xmlns="http://www.w3.org/2000/svg">
<path d="M9.91722 16.8428C9.99816 16.9374 10.0988 17.0133 10.212 17.0651C10.3252 17.1169 10.4484 17.1434 10.5729 17.1428C10.7002 17.1393 10.8251 17.1074 10.9385 17.0496C11.0519 16.9918 11.151 16.9094 11.2286 16.8085L17.8244 8.23709C17.893 8.14789 17.9434 8.04603 17.9727 7.93734C18.002 7.82865 18.0096 7.71525 17.9951 7.60362C17.9806 7.49199 17.9442 7.38432 17.8881 7.28675C17.8319 7.18917 17.7571 7.10361 17.6679 7.03495C17.5787 6.96629 17.4769 6.91587 17.3682 6.88657C17.2595 6.85727 17.1461 6.84967 17.0345 6.86419C16.9228 6.87872 16.8152 6.91509 16.7176 6.97123C16.62 7.02737 16.5345 7.10217 16.4658 7.19138L10.5172 14.9057L7.46579 11.3185C7.39909 11.216 7.3112 11.1289 7.20803 11.0631C7.10487 10.9974 6.98883 10.9544 6.8677 10.9372C6.74657 10.9201 6.62317 10.929 6.50578 10.9635C6.3884 10.9979 6.27975 11.0571 6.18715 11.1371C6.09454 11.217 6.02012 11.3159 5.9689 11.427C5.91767 11.5381 5.89082 11.6589 5.89015 11.7812C5.88948 11.9035 5.91501 12.0246 5.96502 12.1363C6.01502 12.2479 6.08836 12.3476 6.18008 12.4285L9.91722 16.8428Z" fill="#004192"/>
<path d="M12 24C14.3734 24 16.6934 23.2962 18.6668 21.9776C20.6402 20.6591 22.1783 18.7849 23.0865 16.5922C23.9948 14.3995 24.2324 11.9867 23.7694 9.65892C23.3064 7.33115 22.1635 5.19295 20.4853 3.51472C18.807 1.83649 16.6689 0.693605 14.3411 0.230582C12.0133 -0.232441 9.60051 0.0051994 7.4078 0.913451C5.21508 1.8217 3.34094 3.35977 2.02236 5.33316C0.703788 7.30655 0 9.62663 0 12C0 15.1826 1.26428 18.2348 3.51472 20.4853C5.76515 22.7357 8.8174 24 12 24ZM12 1.71429C14.0343 1.71429 16.023 2.31754 17.7144 3.44775C19.4059 4.57795 20.7243 6.18436 21.5028 8.06383C22.2813 9.9433 22.4849 12.0114 22.0881 14.0066C21.6912 16.0019 20.7116 17.8346 19.2731 19.2731C17.8346 20.7116 16.0019 21.6912 14.0066 22.0881C12.0114 22.485 9.94329 22.2813 8.06383 21.5028C6.18436 20.7243 4.57795 19.4059 3.44774 17.7144C2.31753 16.023 1.71429 14.0343 1.71429 12C1.71429 9.27206 2.79796 6.65585 4.7269 4.72691C6.65585 2.79796 9.27206 1.71429 12 1.71429Z" fill="#004192"/>
</svg>
