<svg width="80" height="80" viewBox="0 0 80 80" fill="none" xmlns="http://www.w3.org/2000/svg">
<path fill-rule="evenodd" clip-rule="evenodd" d="M38 2C38 0.895508 38.8954 0 40 0C41.1046 0 42 0.895508 42 2H48H52V6V8V12H48H42V15.1528C48.2302 16.1147 53 21.5005 53 28V49H71C73.2091 49 75 50.7908 75 53V76H78C79.1046 76 80 76.8955 80 78C80 79.1045 79.1046 80 78 80H75H71H53H49H46H42H38H34H31H27H9H5H2C0.895386 80 0 79.1045 0 78C0 76.8955 0.895386 76 2 76H5V53C5 50.7908 6.79089 49 9 49H27V28C27 21.5005 31.7698 16.1147 38 15.1528V12V8V6V2ZM42 8V6H48V8H42ZM9 53H27V58H9V53ZM9 62V76H16V62H9ZM27 76H20V62H27V76ZM64 76H71V62H64V76ZM60 76V62H53V76H60ZM53 58H71V53H53V58ZM31 49V53V76H34V62V58H38H42H46V62V76H49V53V49V28C49 23.0295 44.9706 19 40 19C35.0294 19 31 23.0295 31 28V49ZM42 76V62H38V76H42ZM42 29C42 30.1045 41.1046 31 40 31C38.8954 31 38 30.1045 38 29C38 27.8955 38.8954 27 40 27C41.1046 27 42 27.8955 42 29ZM46 29C46 32.3137 43.3137 35 40 35C36.6863 35 34 32.3137 34 29C34 25.6863 36.6863 23 40 23C43.3137 23 46 25.6863 46 29Z" fill="#004192"/>
</svg>
