<svg width="56" height="56" viewBox="0 0 56 56" fill="none" xmlns="http://www.w3.org/2000/svg">
<path d="M49.2333 42.4667H48.5333V31.5C48.5333 30.8 48.0667 30.3333 47.3667 30.3333C42.7 30.3333 38.5 30.3333 33.8333 30.3333C33.1333 30.3333 32.6667 30.8 32.6667 31.5V42.5833H24.0333V35.4667C24.0333 32.6667 22.5167 30.2167 20.4167 28.8167L16.1 19.3667L36.2833 13.8833C36.4 14 36.5167 14 36.6333 14.1167V17.0333L33.25 20.4167C32.7833 20.8833 32.7833 21.5833 33.25 22.05L36.6333 25.4333C37.1 25.9 37.8 25.9 38.2667 25.4333C38.7333 24.9667 38.7333 24.2667 38.2667 23.8L35.7 21.2333L37.5667 19.3667C37.9167 19.4833 43.5167 19.4833 43.75 19.3667L45.6167 21.2333L43.05 23.8C42.5833 24.2667 42.5833 24.9667 43.05 25.4333C43.5167 25.9 44.2167 25.9 44.6833 25.4333L48.0667 22.05C48.5333 21.5833 48.5333 20.8833 48.0667 20.4167L44.6833 17.0333V14C46.7833 12.6 48.1833 10.2667 48.1833 7.58333C48.1833 3.38333 44.8 0 40.6 0C37.9167 0 35.5833 1.4 34.1833 3.5L11.6667 7.93333C10.85 7.58333 9.91667 7.46667 8.86667 7.46667C4.66667 7.46667 1.28333 10.85 1.28333 15.05C1.28333 18.2 3.15 20.8833 5.95 22.05L9.8 30.8C8.86667 32.0833 8.28333 33.7167 8.28333 35.4667V42.5833H6.76667C3.03333 42.4667 0 45.5 0 49.2333C0 52.9667 3.03333 56 6.76667 56H49.2333C52.9667 56 56 52.9667 56 49.2333C56 45.5 52.9667 42.4667 49.2333 42.4667ZM40.0167 32.6667H41.4167V35.35H40.0167V32.6667ZM35 32.6667H37.5667V36.5167C37.5667 37.2167 38.0333 37.6833 38.7333 37.6833H42.4667C43.1667 37.6833 43.6333 37.2167 43.6333 36.5167V32.6667H46.2V42.5833H35V32.6667ZM21.7 34.1833H10.7333C11.3167 31.6167 13.5333 29.75 16.2167 29.75C18.9 29.75 21.1167 31.7333 21.7 34.1833ZM21.8167 36.5167V42.4667H10.6167V36.5167H21.8167ZM42.35 17.0333H38.9667V14.9333C39.55 15.05 40.1333 15.1667 40.7167 15.1667C41.3 15.1667 41.8833 15.05 42.4667 14.9333V17.0333H42.35ZM40.7167 2.33333C43.6333 2.33333 45.9667 4.66667 45.9667 7.58333C45.9667 10.5 43.6333 12.8333 40.7167 12.8333C37.8 12.8333 35.4667 10.5 35.4667 7.58333C35.4667 4.66667 37.8 2.33333 40.7167 2.33333ZM33.25 6.06667C33.1333 6.53333 33.1333 7 33.1333 7.58333C33.1333 9.21667 33.6 10.6167 34.4167 11.9L16.3333 16.6833C16.45 16.1 16.5667 15.5167 16.5667 14.9333C16.5667 12.95 15.75 11.0833 14.4667 9.68333L33.25 6.06667ZM3.61667 15.05C3.61667 12.1333 5.95 9.8 8.86667 9.8C11.7833 9.8 14.1167 12.1333 14.1167 15.05C14.1167 17.9667 11.7833 20.3 8.86667 20.3C5.95 20.3 3.61667 17.9667 3.61667 15.05ZM8.75 22.6333H8.86667C10.85 22.6333 12.7167 21.8167 14.1167 20.5333L17.3833 27.5333C17.0333 27.5333 16.5667 27.4167 16.2167 27.4167C14.4667 27.4167 12.95 28 11.55 28.9333L8.75 22.6333ZM49.2333 53.6667H6.76667C4.31667 53.6667 2.33333 51.6833 2.33333 49.2333C2.33333 46.7833 4.31667 44.8 6.76667 44.8C13.65 44.8 26.8333 44.8 47.4833 44.8H49.35C51.8 44.8 53.7833 46.7833 53.7833 49.2333C53.7833 51.6833 51.6833 53.6667 49.2333 53.6667Z" fill="#004192"/>
<path d="M45.15 48.0667H10.85C10.15 48.0667 9.68336 48.5333 9.68336 49.2333C9.68336 49.9333 10.15 50.4 10.85 50.4H45.15C45.85 50.4 46.3167 49.9333 46.3167 49.2333C46.3167 48.5333 45.7334 48.0667 45.15 48.0667Z" fill="#004192"/>
</svg>
