<svg width="56" height="56" viewBox="0 0 56 56" fill="none" xmlns="http://www.w3.org/2000/svg">
<path d="M41.7387 26.0306C42.9756 26.0306 43.9827 25.0235 43.9827 23.7866C43.9827 22.5497 42.9756 21.5426 41.7387 21.5426C40.5018 21.5426 39.4947 22.5497 39.4947 23.7866C39.4947 25.0235 40.5018 26.0306 41.7387 26.0306ZM41.7387 23.3378C41.9865 23.3378 42.1875 23.5389 42.1875 23.7866C42.1875 24.0344 41.9865 24.2354 41.7387 24.2354C41.491 24.2354 41.2899 24.0344 41.2899 23.7866C41.2899 23.5389 41.491 23.3378 41.7387 23.3378Z" fill="#004192"/>
<path d="M34.1091 23.7866C34.1091 22.5497 33.102 21.5426 31.8651 21.5426C30.6281 21.5426 29.621 22.5497 29.621 23.7866C29.621 25.0235 30.6281 26.0306 31.8651 26.0306C33.102 26.0306 34.1091 25.0235 34.1091 23.7866ZM31.8651 24.2354C31.6173 24.2354 31.4162 24.0344 31.4162 23.7866C31.4162 23.5389 31.6173 23.3378 31.8651 23.3378C32.1128 23.3378 32.3139 23.5389 32.3139 23.7866C32.3139 24.0344 32.1128 24.2354 31.8651 24.2354Z" fill="#004192"/>
<path d="M41.2899 29.6211H39.4946C39.4946 31.1057 38.2865 32.3139 36.8018 32.3139C35.3172 32.3139 34.109 31.1057 34.109 29.6211H32.3138C32.3138 32.0958 34.3271 34.1091 36.8018 34.1091C39.2765 34.1091 41.2899 32.0958 41.2899 29.6211Z" fill="#004192"/>
<path d="M11.6689 32.3139C13.1536 32.3139 14.3617 31.1057 14.3617 29.621C14.3617 28.1364 13.1536 26.9282 11.6689 26.9282C10.1843 26.9282 8.97609 28.1364 8.97609 29.621C8.97609 31.1057 10.1843 32.3139 11.6689 32.3139ZM11.6689 28.7234C12.1635 28.7234 12.5665 29.1265 12.5665 29.621C12.5665 30.1156 12.1635 30.5187 11.6689 30.5187C11.1743 30.5187 10.7713 30.1156 10.7713 29.621C10.7713 29.1265 11.1743 28.7234 11.6689 28.7234Z" fill="#004192"/>
<path d="M23.0811 50.2661H56L53.0415 41.3896C52.3027 39.1761 50.4151 37.5622 48.1136 37.1789L42.254 36.2023C44.6982 34.7599 46.5204 32.3839 47.234 29.5654C49.443 29.2863 51.1637 27.4166 51.1637 25.133V19.4979C51.6978 19.1864 52.0613 18.6137 52.0613 17.9522V16.157C52.0613 15.482 51.6834 14.9003 51.1314 14.5942C50.81 8.13592 45.8813 2.78528 39.4948 1.92896V1.79522C39.4948 0.805155 38.6896 0 37.6996 0H35.9043C34.9143 0 34.1091 0.805155 34.1091 1.79522V1.92896C27.7226 2.78528 22.7939 8.13592 22.4725 14.5942C21.9205 14.9003 21.5426 15.482 21.5426 16.157V17.9522C21.5426 18.6137 21.9061 19.1864 22.4402 19.4979V25.133C22.4402 27.4166 24.1609 29.2863 26.3708 29.5645C27.0844 32.3839 28.9066 34.759 31.3508 36.2014L25.4912 37.178C23.4689 37.5146 21.767 38.8027 20.882 40.6132L17.0546 28.5843V27.4668H17.0456C17.0016 25.8924 15.8634 24.59 14.3617 24.2992V18.8498H8.97609V24.2992C7.47439 24.5891 6.33712 25.8924 6.29224 27.4668H6.28326V28.5843L0.141822 47.8874C0.0475732 48.1818 0 48.4879 0 48.7976V49.0606C0 50.2858 0.740527 51.3387 1.79522 51.8037V55.6517H3.59043V51.9958C4.61101 51.7902 5.47451 51.0676 5.82997 50.0596L7.34064 45.778H15.9972L17.5079 50.0596C17.8633 51.0667 18.7268 51.7893 19.7474 51.9958V55.6517H21.5426V51.8046C22.2284 51.5021 22.7786 50.9518 23.0811 50.2661ZM30.674 41.0737L31.9342 37.9249L32.4351 37.8414C32.4925 38.0828 32.5706 38.3162 32.6658 38.5415L34.794 48.4709H34.4807L31.5456 45.5357L32.4432 42.8428L30.674 41.0737ZM41.6697 37.9249L42.9299 41.0737L41.1607 42.8428L42.0583 45.5357L39.1232 48.4709H38.8099L40.9381 38.5406C41.0333 38.3162 41.1114 38.0828 41.1688 37.8405L41.6697 37.9249ZM36.9734 48.4709H36.6296L35.0067 40.8986C35.5597 41.1419 36.162 41.29 36.8019 41.29C37.4419 41.29 38.0442 41.1419 38.5963 40.8986L36.9734 48.4709ZM39.2282 37.95C38.7955 38.8593 37.8746 39.4948 36.8019 39.4948C35.7293 39.4948 34.8084 38.8593 34.3757 37.9491L34.2545 37.3818C35.0723 37.582 35.9232 37.6996 36.8019 37.6996C37.6807 37.6996 38.5316 37.582 39.3503 37.3827L39.2282 37.95ZM51.3378 41.9578L53.5091 48.4709H49.2069L48.4538 44.7045L46.6936 45.0573L47.3758 48.4709H41.6616L44.1121 46.0204L43.2145 43.3276L45.0357 41.5063L43.7414 38.2704L47.8165 38.9499C49.4618 39.2237 50.81 40.3762 51.3378 41.9578ZM49.3685 19.7474V21.5659C48.8443 21.1692 48.2402 20.8721 47.5732 20.7365V19.7474H49.3685ZM47.5356 27.6724C47.5526 27.4255 47.5732 27.1796 47.5732 26.9283V22.6054C48.6154 22.977 49.3685 23.9643 49.3685 25.133C49.3685 26.3152 48.5974 27.3115 47.5356 27.6724ZM49.3245 14.3617H47.5732V16.157H50.2661V17.9522H23.3378V16.157H45.778V14.3617H42.3887L44.174 5.57415C47.0697 7.52196 49.0435 10.7219 49.3245 14.3617ZM26.0306 19.7474V20.7357C25.3637 20.8721 24.7596 21.1683 24.2354 21.565V19.7474H26.0306ZM35.9043 1.79522H37.6996V10.7713H35.9043L35.9034 1.79522H35.9043ZM35.9043 12.5665H37.6996C38.6896 12.5665 39.4948 11.7614 39.4948 10.7713V3.73495C40.5629 3.90101 41.579 4.21427 42.5296 4.64961L40.5566 14.3617H33.0482L31.0743 4.64961C32.0249 4.21427 33.041 3.90011 34.1091 3.73495V10.7713C34.1091 11.7614 34.9143 12.5665 35.9043 12.5665ZM29.4299 5.57415L31.2152 14.3617H24.2785C24.5604 10.7219 26.5342 7.52196 29.4299 5.57415ZM24.2354 25.133C24.2354 23.9643 24.9885 22.977 26.0306 22.6054V26.9283C26.0306 27.1796 26.0513 27.4255 26.0683 27.6724C25.0065 27.3115 24.2354 26.3152 24.2354 25.133ZM27.8259 26.9283V19.7474H45.778V26.9283C45.778 31.8777 41.7514 35.9043 36.8019 35.9043C31.8525 35.9043 27.8259 31.8777 27.8259 26.9283ZM22.2661 41.9578C22.793 40.3762 24.1421 39.2237 25.7865 38.9499L29.8616 38.2704L28.5673 41.5063L30.3885 43.3276L29.4909 46.0204L31.9414 48.4709H26.2281L26.9112 45.0564L25.151 44.7036L24.397 48.4709H23.3127C23.2911 48.2734 23.257 48.0777 23.1969 47.8874L21.7769 43.4254L22.2661 41.9578ZM12.5665 20.645V24.2354H10.7713V20.645H12.5665ZM9.6071 26.0306H13.7307C14.5736 26.0306 15.2593 26.7164 15.2593 27.5593C15.2593 27.6715 15.2468 27.7828 15.2225 27.8914L13.9075 33.8102C13.7514 34.5148 13.1374 35.0067 12.4157 35.0067H10.923C10.2004 35.0067 9.58736 34.5148 9.43027 33.8102L8.11528 27.8905C8.09104 27.7828 8.07848 27.6715 8.07848 27.5593C8.07848 26.7164 8.76425 26.0306 9.6071 26.0306ZM10.9221 36.8019H12.4148C12.5513 36.8019 12.6841 36.784 12.817 36.7678L14.096 40.3924H9.24088L10.52 36.7678C10.6537 36.784 10.7857 36.8019 10.9221 36.8019ZM4.13708 49.4618C3.96653 49.9429 3.51055 50.2661 3.00071 50.2661C2.33647 50.2661 1.79522 49.7248 1.79522 49.0606V48.7976C1.79522 48.6737 1.81407 48.5507 1.85177 48.4323L7.14407 31.7996L7.67814 34.1989C7.84959 34.9726 8.27595 35.6279 8.8576 36.0874L4.13708 49.4618ZM7.97435 43.9828L8.60807 42.1876H14.7298L15.3635 43.9828H7.97435ZM21.5426 49.0606C21.5426 49.7248 21.0013 50.2661 20.3371 50.2661C19.8273 50.2661 19.3704 49.9429 19.2007 49.4618L14.4802 36.0874C15.0619 35.6279 15.4873 34.9726 15.6597 34.1989L16.1929 31.7987L21.4852 48.4323C21.5238 48.5498 21.5426 48.6737 21.5426 48.7976V49.0606Z" fill="#004192"/>
</svg>
