<svg width="56" height="52" viewBox="0 0 56 52" fill="none" xmlns="http://www.w3.org/2000/svg">
<path d="M20.9657 19.9174L0.349429 40.6502C-0.116476 41.1161 -0.116476 41.815 0.349429 42.2809L8.8522 50.7837C9.08515 51.0166 9.3181 51.1331 9.66753 51.1331C10.017 51.1331 10.2499 51.0166 10.4829 50.7837C11.1817 50.0848 28.1873 33.0793 29.352 31.9145L30.8662 33.4287C31.0992 33.6616 31.4486 33.7781 31.6815 33.7781C31.9145 33.7781 32.2639 33.6616 32.4969 33.4287L37.0395 28.8861L47.4058 32.1475C47.8717 32.2639 48.4541 32.1474 48.8036 31.6815C49.0365 31.2156 49.0365 30.6333 48.6871 30.2838L39.9514 21.5481L45.3093 16.1902L54.045 24.9259C54.3944 25.2754 54.9768 25.3918 55.4427 25.0424C55.9086 24.8094 56.1416 24.2271 55.9086 23.6447L51.1331 9.20163C51.0166 8.96867 50.9001 8.8522 50.7837 8.73572L42.3974 0.349429C41.9315 -0.116476 41.2326 -0.116476 40.7667 0.349429L38.6701 2.21305C37.8548 1.63067 36.8065 1.39772 35.7582 1.39772C34.3605 1.39772 32.9628 1.9801 31.9145 3.02838C31.4486 3.49429 31.4486 4.19315 31.9145 4.65905L34.0111 6.75562L29.1191 11.6476L27.0225 9.55105C26.5566 9.08515 25.8577 9.08515 25.3918 9.55105C24.3435 10.5993 23.7612 11.8806 23.7612 13.3948C23.7612 14.4431 24.1106 15.3749 24.5765 16.3067L21.4316 19.4515L20.9657 19.9174ZM43.5621 28.4202L37.0395 26.3236C36.5735 26.2072 36.2241 26.3236 35.8747 26.5566L31.6815 30.7497L30.1674 29.2355L28.6532 27.8378L35.8747 20.6163L37.3889 22.1305L43.5621 28.4202ZM23.7612 20.4998L27.139 17.122C27.6049 16.6561 27.6049 15.9572 27.139 15.4913C26.5566 14.909 26.2072 14.2101 26.2072 13.3948C26.2072 13.0453 26.3236 12.5794 26.4401 12.23L30.6333 16.4232L24.8094 22.247L23.5282 20.9657L23.7612 20.4998ZM23.9941 24.5765C24.2271 24.8094 24.5765 24.9259 24.8094 24.9259C25.0424 24.9259 25.3918 24.8094 25.6248 24.5765L33.0793 17.122C33.4287 16.8891 33.5452 16.4232 33.4287 15.9572C33.4287 15.7243 33.1957 15.4913 33.0793 15.3749L30.9827 13.2783L36.69 7.57096C37.1559 7.10505 37.1559 6.4062 36.69 5.94029L34.7099 3.96019C35.7582 3.49429 37.1559 3.72724 38.0877 4.65905C38.3207 4.892 38.5536 5.00848 38.9031 5.00848C39.2525 5.00848 39.4855 4.892 39.7184 4.65905L41.582 2.79543L49.0365 10.2499L52.1814 19.6845L46.1246 13.6277L46.0081 13.5112C45.5422 13.1618 44.8434 13.1618 44.3775 13.6277L38.2042 19.6845L36.69 18.1703C36.4571 17.9373 36.2241 17.8209 35.8747 17.8209C35.5253 17.8209 35.2923 17.9373 35.0594 18.1703L26.2072 27.0225C25.7413 27.4884 25.7413 28.1873 26.2072 28.6532L27.7214 30.1674L26.0907 31.798L23.2953 29.2355C22.8293 28.7696 22.1305 28.7696 21.6646 29.2355C21.1987 29.7015 21.1987 30.4003 21.6646 30.8662L24.3435 33.5452L22.7129 35.1758L21.4316 33.8946C20.9657 33.4287 20.2669 33.4287 19.801 33.8946C19.3351 34.3605 19.3351 35.0594 19.801 35.5253L21.0822 36.8065L19.4515 38.4372L16.7726 35.7582C16.3067 35.2923 15.6078 35.2923 15.1419 35.7582C14.676 36.2241 14.676 36.923 15.1419 37.3889L17.8209 40.0678L16.4232 41.4656L15.1419 40.1843C14.676 39.7184 13.9772 39.7184 13.5112 40.1843C13.0453 40.6502 13.0453 41.3491 13.5112 41.815L14.7925 43.0962L13.1618 44.7269L10.4829 42.0479C10.017 41.582 9.3181 41.582 8.8522 42.0479C8.38629 42.5138 8.38629 43.2127 8.8522 43.6786L11.5312 46.3576L9.66753 48.2212L2.79543 41.3491L21.7811 22.3634L23.9941 24.5765Z" fill="#004192"/>
</svg>
