<svg width="160" height="105" viewBox="0 0 160 105" fill="none" xmlns="http://www.w3.org/2000/svg">
<path d="M0 96.4712C0 105.833 3.06514 113.364 9.19542 119.063C15.3257 124.354 23.0907 127 32.4904 127C43.5249 127 52.7203 123.337 60.0766 116.01C67.0243 108.683 70.4981 97.8959 70.4981 83.649C70.4981 70.2164 68.659 58.8189 64.9809 49.4567C60.894 39.6875 56.1941 31.5465 50.8812 25.0337C45.1597 18.1138 39.4381 12.6186 33.7165 8.54808C27.5862 4.47757 22.2733 1.62821 17.7778 0L2.45212 21.3702C11.4432 25.8478 18.7995 31.9535 24.5211 39.6875C29.834 47.0144 32.4904 56.3766 32.4904 67.774C30.8557 67.367 28.6079 67.1635 25.7471 67.1635C17.5735 67.1635 11.2388 70.0128 6.7433 75.7115C2.24777 81.4103 0 88.3301 0 96.4712ZM89.5019 96.4712C89.5019 105.833 92.5671 113.364 98.6973 119.063C104.828 124.354 112.593 127 121.992 127C133.027 127 142.222 123.337 149.579 116.01C156.526 108.683 160 97.8959 160 83.649C160 70.2164 158.161 58.8189 154.483 49.4567C150.396 39.6875 145.696 31.5465 140.383 25.0337C134.662 18.1138 128.94 12.6186 123.218 8.54808C117.088 4.47757 111.775 1.62821 107.28 0L91.954 21.3702C100.945 25.8478 108.301 31.9535 114.023 39.6875C119.336 47.0144 121.992 56.3766 121.992 67.774C120.358 67.367 118.11 67.1635 115.249 67.1635C107.075 67.1635 100.741 70.0128 96.2452 75.7115C91.7497 81.4103 89.5019 88.3301 89.5019 96.4712Z" fill="#2E67AD"/>
</svg>
