<svg width="56" height="56" viewBox="0 0 56 56" fill="none" xmlns="http://www.w3.org/2000/svg">
<path d="M49.35 42.7H26.6V29.6333C26.6 28.9333 26.1333 28.4667 25.4333 28.4667C21.2333 28.4667 13.5333 28.4667 9.33333 28.4667C8.63333 28.4667 8.16667 28.9333 8.16667 29.6333V42.7H6.65C3.03333 42.7 0 45.6167 0 49.35C0 53.0833 2.91667 56 6.65 56H49.35C52.9667 56 56 52.9667 56 49.35C56 45.7333 52.9667 42.7 49.35 42.7ZM16.3333 30.8H18.4333V34.3H16.3333V30.8ZM10.3833 30.8H13.8833V35.4667C13.8833 36.1667 14.35 36.6333 15.05 36.6333H19.4833C20.1833 36.6333 20.65 36.1667 20.65 35.4667V30.8H24.15V42.7H10.3833V30.8ZM49.35 53.6667H6.65C4.31667 53.6667 2.33333 51.6833 2.33333 49.35C2.33333 47.0167 4.31667 45.0333 6.65 45.0333C21.8167 45.0333 33.4833 45.0333 49.35 45.0333C51.6833 45.0333 53.6667 47.0167 53.6667 49.35C53.6667 51.6833 51.6833 53.6667 49.35 53.6667Z" fill="#004192"/>
<path d="M45.1501 48.1833H10.8501C10.1501 48.1833 9.68341 48.65 9.68341 49.35C9.68341 50.05 10.1501 50.5167 10.8501 50.5167H45.1501C45.8501 50.5167 46.3167 50.05 46.3167 49.35C46.3167 48.65 45.7334 48.1833 45.1501 48.1833Z" fill="#004192"/>
<path d="M42.5834 0C41.8834 0 41.4167 0.466667 41.4167 1.16667V9.1L30.1 11.4333C29.5167 11.55 29.1667 12.0167 29.1667 12.6V24.6167C29.1667 25.3167 29.6334 25.7833 30.3334 25.7833H33.25V33.25C33.25 33.95 33.7167 34.4167 34.4167 34.4167H50.5167C51.2167 34.4167 51.6834 33.95 51.6834 33.25V25.7833H54.8334C55.5334 25.7833 56 25.3167 56 24.6167V12.6C56 12.0167 55.65 11.55 55.0667 11.4333L43.75 9.1V1.16667C43.75 0.466667 43.1667 0 42.5834 0ZM49.4667 32.0833H35.5834V20.1833H39.0834V24.85C39.0834 25.55 39.55 26.0167 40.25 26.0167H44.6834C45.3834 26.0167 45.85 25.55 45.85 24.85V20.1833H49.35V32.0833H49.4667ZM41.5334 23.6833V20.1833H43.6334V23.6833H41.5334ZM53.6667 13.65V23.5667H51.9167V19.1333C51.9167 18.4333 51.45 17.9667 50.75 17.9667C46.55 17.9667 38.85 17.9667 34.65 17.9667C33.95 17.9667 33.4834 18.4333 33.4834 19.1333V23.5667H31.5V13.65L42.5834 11.3167L53.6667 13.65Z" fill="#004192"/>
</svg>
