<svg width="80" height="80" viewBox="0 0 80 80" fill="none" xmlns="http://www.w3.org/2000/svg">
<path fill-rule="evenodd" clip-rule="evenodd" d="M34 0H33.9614L33.4957 0.270508L20.485 7.82495C18.3277 9.07764 17 11.3838 17 13.8784V62H15C12.7908 62 11 63.7908 11 66V76H2C0.895447 76 0 76.8955 0 78C0 79.1045 0.895447 80 2 80H11H15H23H27H78C79.1046 80 80 79.1045 80 78C80 76.8955 79.1046 76 78 76H27V66C27 63.7908 25.2092 62 23 62H21V13.8784C21 12.8093 21.569 11.821 22.4936 11.2842L34.0005 4.60278C34.0556 9.802 38.2876 14 43.5 14C48.7467 14 53 9.74683 53 4.5V4V0H49H38H34.5H34ZM38 4.5V4H49V4.5C49 7.5376 46.5376 10 43.5 10C40.4624 10 38 7.5376 38 4.5ZM23 66H15V76H23V66ZM44 24C42.8954 24 42 24.8955 42 26V34C42 35.1045 42.8954 36 44 36C45.1046 36 46 35.1045 46 34V26C46 24.8955 45.1046 24 44 24ZM48.5858 18.5859C47.8047 19.3669 47.8047 20.6333 48.5858 21.4143L54.2427 27.071C55.0237 27.8523 56.29 27.8523 57.071 27.071C57.8521 26.29 57.8521 25.0237 57.071 24.2427L51.4142 18.5859C50.6332 17.8047 49.3668 17.8047 48.5858 18.5859ZM39.4142 21.4143C40.1953 20.6333 40.1953 19.3669 39.4142 18.5859C38.6332 17.8047 37.3668 17.8047 36.5858 18.5859L30.929 24.2427C30.1479 25.0237 30.1479 26.29 30.929 27.071C31.71 27.8523 32.9763 27.8523 33.7573 27.071L39.4142 21.4143Z" fill="#004192"/>
</svg>
