<svg width="56" height="56" viewBox="0 0 56 56" fill="none" xmlns="http://www.w3.org/2000/svg">
<path d="M54.7193 38.8857H47.1518V5.12266C47.1518 2.32848 44.8233 0 41.9127 0H5.70478H5.58836H5.47193C2.44491 0 0 2.44491 0 5.47193V11.526C0 12.2245 0.465696 12.6902 1.16424 12.6902H8.84823V27.3597L7.91684 26.7775C7.45114 26.5447 6.86902 26.5447 6.51975 26.894L3.14345 30.2703C2.79418 30.6195 2.67775 31.2017 3.02703 31.6674L5.12266 34.9272C5.00624 35.1601 5.00624 35.2765 4.88981 35.5094L1.16424 36.4408C0.582121 36.5572 0.232848 37.0229 0.232848 37.605V42.262C0.232848 42.8441 0.582121 43.3098 1.16424 43.4262L5.00624 44.3576C5.12266 44.5904 5.12266 44.7069 5.23909 44.8233L3.25988 48.0832C3.02703 48.5489 3.02703 49.131 3.3763 49.4803L6.7526 52.8566C7.10187 53.2058 7.68399 53.3222 8.14969 52.973L11.526 50.8773C11.7588 50.9938 11.8753 50.9938 12.1081 51.1102L13.0395 54.8358C13.1559 55.3015 13.6216 55.7672 14.2037 55.7672H18.6279C19.21 55.7672 19.6757 55.4179 19.7921 54.8358L20.7235 51.1102C20.9563 50.9938 21.0728 50.9938 21.3056 50.8773L24.5655 52.8566C25.0312 53.0894 25.6133 53.0894 25.9626 52.7401L27.2432 51.4595H50.2952H50.5281C53.5551 51.4595 56 49.0146 56 45.9875V39.9335C55.8836 39.3514 55.4179 38.8857 54.7193 38.8857ZM2.32848 10.3617V5.47193C2.32848 3.72557 3.72557 2.32848 5.47193 2.32848H5.58836H5.70478C7.45114 2.32848 8.84823 3.72557 8.84823 5.47193V10.3617H2.32848ZM25.0312 45.4054L27.0104 48.5489L24.9148 50.5281L21.8877 48.6653C21.5385 48.4324 21.0728 48.4324 20.7235 48.6653C20.2578 48.8981 19.7921 49.131 19.3264 49.2474C18.9771 49.3638 18.6279 49.7131 18.5114 50.0624L17.6965 53.5551H14.7859L13.9709 50.0624C13.8545 49.7131 13.6216 49.3638 13.1559 49.2474C12.6902 49.131 12.1081 48.8981 11.7588 48.6653C11.4096 48.4324 10.9439 48.5489 10.5946 48.6653L7.45114 50.5281L5.35551 48.4324L7.2183 45.4054C7.45114 45.0561 7.45114 44.5904 7.2183 44.2412C6.98545 43.7755 6.7526 43.3098 6.63617 42.9605V42.8441C6.51975 42.4948 6.17048 42.262 5.82121 42.1455L2.32848 41.3306V38.42L5.82121 37.605C6.17048 37.4886 6.51975 37.2557 6.63617 36.79C6.7526 36.3243 6.98545 35.8586 7.2183 35.3929C7.45114 35.0437 7.33472 34.578 7.2183 34.2287L5.35551 31.2017L7.45114 29.2225L10.4782 31.0852C10.8274 31.3181 11.2931 31.3181 11.6424 31.0852C12.1081 30.8524 12.5738 30.6195 13.0395 30.5031C13.3888 30.3867 13.738 30.0374 13.8545 29.6882L14.6694 26.1954H17.58L18.395 29.6882C18.5114 30.0374 18.7443 30.3867 19.21 30.5031C19.6757 30.6195 20.1414 30.8524 20.6071 31.0852C20.9563 31.3181 21.422 31.2017 21.7713 31.0852L24.9148 29.2225L27.0104 31.2017L25.1476 34.2287C24.9148 34.578 24.9148 35.0437 25.1476 35.3929C25.3805 35.8586 25.6133 36.3243 25.7297 36.79C25.8462 37.1393 26.1954 37.4886 26.5447 37.605L30.0374 38.42V41.3306L26.5447 42.1455C26.1954 42.262 25.8462 42.4948 25.7297 42.9605C25.6133 43.4262 25.3805 43.8919 25.1476 44.3576C25.0312 44.474 25.0312 44.5904 25.0312 44.7069V44.8233C24.9148 45.0561 24.9148 45.1726 25.0312 45.4054ZM20.1414 27.1268H23.8669L21.0728 28.8732C20.8399 28.7568 20.7235 28.7568 20.4906 28.6403L20.1414 27.1268ZM29.4553 49.2474C29.6882 48.8981 29.6882 48.4324 29.4553 48.0832L27.3597 44.8233C27.4761 44.5904 27.4761 44.474 27.5925 44.2412L31.3181 43.3098C31.9002 43.1933 32.2495 42.7277 32.2495 42.1455V41.447H36.4408C37.1393 41.447 37.605 40.9813 37.605 40.2827C37.605 39.5842 37.1393 39.1185 36.4408 39.1185H32.2495V37.4886C32.2495 36.9064 31.9002 36.4408 31.3181 36.3243L27.4761 35.3929C27.3597 35.2765 27.3597 35.0437 27.2432 34.9272L27.5925 34.2287H36.3243C37.0229 34.2287 37.4886 33.763 37.4886 33.0644C37.4886 32.3659 37.0229 31.9002 36.3243 31.9002H28.9896L29.106 31.6674C29.3389 31.2017 29.3389 30.6195 28.9896 30.2703L25.8462 27.1268H36.3243C37.0229 27.1268 37.4886 26.6611 37.4886 25.9626C37.4886 25.264 37.0229 24.7983 36.3243 24.7983H19.5593C19.4428 24.3326 18.9771 23.9834 18.5114 23.9834H13.738C13.1559 23.9834 12.6902 24.3326 12.5738 24.9148L11.6424 28.6403C11.4096 28.7568 11.2931 28.7568 11.0603 28.8732C11.0603 28.6403 11.0603 28.6403 11.0603 28.5239C11.0603 27.3597 11.0603 22.4699 11.0603 5.47193C11.0603 4.30769 10.711 3.25988 10.0125 2.32848H41.7963C43.4262 2.32848 44.7069 3.60915 44.7069 5.12266C44.7069 5.23909 44.7069 5.23909 44.7069 5.35551C44.7069 5.35551 44.7069 5.35551 44.7069 5.47193C44.7069 6.98545 44.7069 14.4366 44.7069 46.104C44.7069 46.3368 44.7069 46.5696 44.8233 46.6861V46.8025C44.8233 46.8025 44.8233 46.8025 44.8233 46.9189C44.9397 47.8503 45.289 48.6653 45.7547 49.3638L29.4553 49.2474ZM53.5551 46.104C53.5551 47.8503 52.158 49.2474 50.4116 49.2474H50.1788C48.6653 49.2474 47.3846 48.1996 47.1518 46.6861V41.0977H53.5551V46.104Z" fill="#004192"/>
<path d="M16.1829 32.3659C11.9917 32.3659 8.49895 35.7422 8.49895 39.9335C8.49895 44.1247 11.9917 47.501 16.1829 47.501C20.3742 47.501 23.8669 44.1247 23.8669 39.9335C23.8669 35.7422 20.3742 32.3659 16.1829 32.3659ZM16.1829 45.1726C13.2723 45.1726 10.8274 42.8441 10.8274 39.9335C10.8274 37.0229 13.2723 34.6944 16.1829 34.6944C19.0935 34.6944 21.5384 37.0229 21.5384 39.9335C21.5384 42.8441 19.0935 45.1726 16.1829 45.1726Z" fill="#004192"/>
<path d="M36.4408 10.3618H19.4429C18.7443 10.3618 18.2786 10.8275 18.2786 11.526C18.2786 12.2245 18.7443 12.6902 19.4429 12.6902H36.5572C37.2557 12.6902 37.7214 12.2245 37.7214 11.526C37.7214 10.8275 37.1393 10.3618 36.4408 10.3618Z" fill="#004192"/>
<path d="M36.4408 17.58H19.4429C18.7443 17.58 18.2786 18.0457 18.2786 18.7443C18.2786 19.4428 18.7443 19.9085 19.4429 19.9085H36.5572C37.2557 19.9085 37.7214 19.4428 37.7214 18.7443C37.7214 18.0457 37.1393 17.58 36.4408 17.58Z" fill="#004192"/>
</svg>
